<svg width="52" height="51" viewBox="0 0 52 51" fill="none" xmlns="http://www.w3.org/2000/svg">
<g clip-path="url(#clip0_480_7532)">
<path d="M48.95 5.94922H3.05C1.64172 5.94922 0.5 7.09084 0.5 8.49922V42.4992C0.5 43.9075 1.64162 45.0492 3.05 45.0492H48.95C50.3583 45.0492 51.5 43.9076 51.5 42.4992V8.49922C51.5 7.09094 50.3584 5.94922 48.95 5.94922ZM49.8 42.4993C49.8 42.9687 49.4195 43.3493 48.95 43.3493H3.05C2.58054 43.3493 2.20003 42.9687 2.20003 42.4993V8.49922C2.20003 8.02976 2.58054 7.64925 3.05 7.64925H48.95C49.4195 7.64925 49.8 8.02976 49.8 8.49922V42.4993Z" fill="#2C742F"/>
<path d="M47.3225 9.35289C47.0978 9.33327 46.8746 9.40369 46.702 9.54872L27.0924 26.0216C26.46 26.5533 25.5369 26.5533 24.9045 26.0216L5.29507 9.54862C5.06248 9.35339 4.74334 9.29701 4.45796 9.4008C4.17257 9.5046 3.96419 9.75282 3.9114 10.052C3.85861 10.3511 3.96937 10.6556 4.20196 10.8508L23.8115 27.3229C25.0753 28.3871 26.9217 28.3871 28.1856 27.3229L47.795 10.8509C47.9677 10.706 48.0757 10.4984 48.0953 10.2738C48.115 10.0492 48.0445 9.82594 47.8995 9.65331C47.7547 9.48049 47.5471 9.37251 47.3225 9.35289Z" fill="#2C742F"/>
<path d="M16.8522 27.206C16.5513 27.1388 16.2377 27.2398 16.0325 27.4699L4.13247 40.2199C3.91712 40.4405 3.83803 40.7604 3.92588 41.0559C4.01374 41.3514 4.25469 41.5761 4.55551 41.6433C4.85643 41.7104 5.17 41.6094 5.3752 41.3793L17.2752 28.6293C17.4906 28.4088 17.5697 28.0888 17.4818 27.7934C17.394 27.4979 17.1531 27.2731 16.8522 27.206Z" fill="#2C742F"/>
<path d="M35.9689 27.4699C35.7639 27.2398 35.4502 27.1388 35.1493 27.206C34.8483 27.2731 34.6075 27.4979 34.5196 27.7934C34.4318 28.0889 34.5109 28.4088 34.7262 28.6293L46.6263 41.3793C46.949 41.7098 47.4765 41.7221 47.8143 41.407C48.1521 41.0918 48.1764 40.5647 47.869 40.2198L35.9689 27.4699Z" fill="#2C742F"/>
</g>
<defs>
<clipPath id="clip0_480_7532">
<rect width="51" height="51" fill="white" transform="translate(0.5)"/>
</clipPath>
</defs>
</svg>
