<svg width="24" height="24" viewBox="0 0 24 24" fill="none" xmlns="http://www.w3.org/2000/svg">
<path d="M13.8194 22H10.1794C9.95133 22 9.7301 21.9221 9.5524 21.7792C9.3747 21.6362 9.2512 21.4368 9.2024 21.214L8.7954 19.33C8.25245 19.0921 7.73763 18.7946 7.2604 18.443L5.4234 19.028C5.20596 19.0973 4.97135 19.0902 4.75852 19.0078C4.54569 18.9254 4.36745 18.7727 4.2534 18.575L2.4294 15.424C2.31654 15.2261 2.27418 14.9958 2.30924 14.7708C2.3443 14.5457 2.4547 14.3392 2.6224 14.185L4.0474 12.885C3.98259 12.2961 3.98259 11.7019 4.0474 11.113L2.6224 9.816C2.45447 9.66177 2.34391 9.45507 2.30885 9.22978C2.27378 9.00449 2.31629 8.77397 2.4294 8.576L4.2494 5.423C4.36345 5.22532 4.54169 5.07259 4.75452 4.99019C4.96735 4.90778 5.20196 4.90066 5.4194 4.97L7.2564 5.555C7.5004 5.375 7.7544 5.207 8.0174 5.055C8.2694 4.913 8.5294 4.784 8.7954 4.669L9.2034 2.787C9.25197 2.5642 9.37523 2.36469 9.55274 2.22155C9.73026 2.07841 9.95136 2.00024 10.1794 2H13.8194C14.0474 2.00024 14.2685 2.07841 14.446 2.22155C14.6236 2.36469 14.7468 2.5642 14.7954 2.787L15.2074 4.67C15.75 4.9079 16.2645 5.20539 16.7414 5.557L18.5794 4.972C18.7967 4.90292 19.0311 4.91017 19.2437 4.99256C19.4563 5.07495 19.6344 5.22753 19.7484 5.425L21.5684 8.578C21.8014 8.985 21.7204 9.5 21.3754 9.817L19.9504 11.117C20.0152 11.7059 20.0152 12.3001 19.9504 12.889L21.3754 14.189C21.7204 14.507 21.8004 15.021 21.5684 15.428L19.7484 18.581C19.6344 18.7785 19.4563 18.931 19.2437 19.0134C19.0311 19.0958 18.7967 19.1031 18.5794 19.034L16.7414 18.449C16.2646 18.8004 15.7501 19.0976 15.2074 19.335L14.7954 21.214C14.7466 21.4366 14.6233 21.6359 14.4458 21.7788C14.2683 21.9218 14.0473 21.9998 13.8194 22ZM7.6194 16.229L8.4394 16.829C8.6244 16.965 8.8174 17.09 9.0164 17.204C9.2044 17.313 9.3974 17.411 9.5954 17.5L10.5284 17.909L10.9854 20H13.0154L13.4724 17.908L14.4054 17.499C14.8124 17.319 15.1994 17.096 15.5584 16.833L16.3794 16.233L18.4204 16.883L19.4354 15.125L17.8524 13.682L17.9644 12.67C18.0144 12.227 18.0144 11.78 17.9644 11.338L17.8524 10.326L19.4364 8.88L18.4204 7.121L16.3794 7.771L15.5584 7.171C15.1992 6.90669 14.8126 6.68173 14.4054 6.5L13.4724 6.091L13.0154 4H10.9854L10.5264 6.092L9.5954 6.5C9.18758 6.67861 8.80087 6.90198 8.4424 7.166L7.6214 7.766L5.5814 7.116L4.5644 8.88L6.1474 10.321L6.0354 11.334C5.9854 11.777 5.9854 12.224 6.0354 12.666L6.1474 13.678L4.5644 15.121L5.5794 16.879L7.6194 16.229ZM11.9954 16C10.9345 16 9.91711 15.5786 9.16697 14.8284C8.41682 14.0783 7.9954 13.0609 7.9954 12C7.9954 10.9391 8.41682 9.92172 9.16697 9.17157C9.91711 8.42143 10.9345 8 11.9954 8C13.0563 8 14.0737 8.42143 14.8238 9.17157C15.574 9.92172 15.9954 10.9391 15.9954 12C15.9954 13.0609 15.574 14.0783 14.8238 14.8284C14.0737 15.5786 13.0563 16 11.9954 16ZM11.9954 10C11.6038 10.0004 11.2208 10.1158 10.8942 10.3318C10.5675 10.5479 10.3115 10.855 10.1578 11.2153C10.0041 11.5755 9.95962 11.9729 10.0298 12.3583C10.0999 12.7436 10.2817 13.0998 10.5524 13.3828C10.8232 13.6657 11.1711 13.863 11.553 13.95C11.9348 14.037 12.3338 14.01 12.7005 13.8724C13.0671 13.7347 13.3853 13.4924 13.6155 13.1756C13.8457 12.8587 13.9778 12.4812 13.9954 12.09V12.49V12C13.9954 11.4696 13.7847 10.9609 13.4096 10.5858C13.0345 10.2107 12.5258 10 11.9954 10Z" fill="#CCCCCC"/>
</svg>
