<svg width="72" height="72" viewBox="0 0 72 72" fill="none" xmlns="http://www.w3.org/2000/svg">
<rect width="72" height="72" rx="36" fill="#00B307" fill-opacity="0.1"/>
<g clip-path="url(#clip0_480_6245)">
<path d="M47.1413 33.3704C46.981 32.8758 46.5615 32.5221 46.0469 32.4474L39.9466 31.5609L37.2185 26.0337C36.9888 25.5671 36.523 25.2773 36.0028 25.2773C35.4827 25.2773 35.0168 25.5671 34.7872 26.0332L32.0589 31.5609L25.9586 32.4474C25.4443 32.5221 25.0249 32.8755 24.8641 33.3702C24.7038 33.8641 24.8351 34.3965 25.2072 34.7598L29.6216 39.0625L28.5795 45.138C28.4915 45.6503 28.698 46.1584 29.1186 46.4641C29.3563 46.637 29.6344 46.7248 29.9143 46.7247C30.1298 46.7247 30.3463 46.6727 30.5464 46.5675L36.0028 43.6989L41.4588 46.5676C41.6525 46.6693 41.8706 46.7231 42.0895 46.7231C42.3779 46.7231 42.6534 46.6336 42.8866 46.4641C43.3066 46.1587 43.5133 45.6509 43.4257 45.1384L43.0135 42.7347C42.9545 42.3909 42.6277 42.1599 42.2842 42.2189C41.9404 42.2779 41.7095 42.6045 41.7685 42.9482L42.1807 45.3515C42.1866 45.3862 42.172 45.422 42.1438 45.4424C42.102 45.473 42.0716 45.4627 42.0463 45.4494L36.2963 42.4264C36.1124 42.3298 35.8927 42.3297 35.7085 42.4264L29.958 45.4495C29.9273 45.4657 29.8891 45.4629 29.8609 45.4424C29.8322 45.4216 29.818 45.387 29.8241 45.3519L30.9223 38.9488C30.9576 38.7438 30.8897 38.5348 30.7408 38.3898L26.0888 33.8555C26.0637 33.8309 26.0543 33.7936 26.065 33.7606C26.0759 33.7273 26.1052 33.7024 26.1398 33.6974L32.5688 32.7632C32.7746 32.7333 32.9524 32.6041 33.0445 32.4177L35.9198 26.5918C35.9511 26.5284 36.0538 26.5279 36.0854 26.5921L38.9607 32.4177C39.0527 32.6041 39.2305 32.7333 39.4362 32.7632L45.8653 33.6974C45.8998 33.7025 45.9291 33.727 45.94 33.7609C45.9508 33.7939 45.9415 33.831 45.9165 33.8553L41.2645 38.3898C41.1156 38.5348 41.0477 38.744 41.0829 38.9488L41.4299 40.9719C41.4888 41.3156 41.8155 41.5466 42.1591 41.4876C42.5029 41.4286 42.7338 41.102 42.6748 40.7583L42.3839 39.0625L46.7984 34.7595C47.1707 34.3964 47.302 33.8639 47.1413 33.3704Z" fill="#00B307" stroke="#00B307" stroke-width="0.3"/>
<path d="M19.6314 35.3691H16.6316C16.2827 35.3691 16 35.6519 16 36.0007C16 36.3495 16.2827 36.6322 16.6316 36.6322H19.6314C19.9803 36.6322 20.263 36.3494 20.263 36.0007C20.263 35.6519 19.9802 35.3691 19.6314 35.3691Z" fill="#00B307" stroke="#00B307" stroke-width="0.3"/>
<path d="M55.3657 35.3691H52.3659C52.017 35.3691 51.7344 35.6519 51.7344 36.0007C51.7344 36.3495 52.0171 36.6322 52.3659 36.6322H55.3657C55.7146 36.6322 55.9973 36.3494 55.9973 36.0007C55.9973 35.6519 55.7146 35.3691 55.3657 35.3691Z" fill="#00B307" stroke="#00B307" stroke-width="0.3"/>
<path d="M23.9781 47.1283L21.8569 49.2494C21.6102 49.496 21.6102 49.8959 21.8568 50.1426C21.9802 50.2659 22.1418 50.3276 22.3035 50.3276C22.465 50.3276 22.6268 50.2659 22.75 50.1427L24.8711 48.0215C25.1179 47.7749 25.1179 47.375 24.8712 47.1283C24.6246 46.8817 24.2247 46.8817 23.9781 47.1283Z" fill="#00B307" stroke="#00B307" stroke-width="0.3"/>
<path d="M49.2516 21.8569L47.1304 23.978C46.8836 24.2247 46.8836 24.6246 47.1303 24.8712C47.2536 24.9946 47.4153 25.0562 47.5769 25.0562C47.7386 25.0562 47.9002 24.9946 48.0234 24.8712L50.1446 22.7501C50.3914 22.5035 50.3914 22.1036 50.1447 21.8569C49.8981 21.6102 49.4982 21.6101 49.2516 21.8569Z" fill="#00B307" stroke="#00B307" stroke-width="0.3"/>
<path d="M35.9987 51.7383C35.6498 51.7383 35.3672 52.0211 35.3672 52.3698V55.3696C35.3672 55.7184 35.6499 56.0012 35.9987 56.0012C36.3476 56.0012 36.6303 55.7184 36.6303 55.3696V52.3698C36.6303 52.021 36.3476 51.7383 35.9987 51.7383Z" fill="#00B307" stroke="#00B307" stroke-width="0.3"/>
<path d="M35.9987 20.263C36.3476 20.263 36.6303 19.9802 36.6303 19.6314V16.6316C36.6303 16.2827 36.3476 16 35.9987 16C35.6498 16 35.3672 16.2828 35.3672 16.6316V19.6314C35.3672 19.9802 35.6498 20.263 35.9987 20.263Z" fill="#00B307" stroke="#00B307" stroke-width="0.3"/>
<path d="M48.0234 47.1283C47.7769 46.8817 47.377 46.8817 47.1303 47.1283C46.8836 47.3749 46.8836 47.7748 47.1304 48.0215L49.2516 50.1427C49.3749 50.266 49.5366 50.3277 49.6982 50.3277C49.8597 50.3277 50.0214 50.266 50.1447 50.1426C50.3914 49.896 50.3914 49.4961 50.1446 49.2494L48.0234 47.1283Z" fill="#00B307" stroke="#00B307" stroke-width="0.3"/>
<path d="M23.978 24.8712C24.1014 24.9945 24.263 25.0562 24.4247 25.0562C24.5862 25.0562 24.7479 24.9945 24.8712 24.8713C25.1179 24.6247 25.1179 24.2248 24.8712 23.9781L22.7501 21.8569C22.5035 21.6102 22.1037 21.6102 21.8569 21.8569C21.6102 22.1034 21.6102 22.5033 21.8569 22.75L23.978 24.8712Z" fill="#00B307" stroke="#00B307" stroke-width="0.3"/>
</g>
<defs>
<clipPath id="clip0_480_6245">
<rect width="40" height="40" fill="white" transform="translate(16 16)"/>
</clipPath>
</defs>
</svg>
