<svg width="72" height="72" viewBox="0 0 72 72" fill="none" xmlns="http://www.w3.org/2000/svg">
<rect width="72" height="72" rx="36" fill="#00B307" fill-opacity="0.1"/>
<g clip-path="url(#clip0_480_6236)">
<path d="M52.4929 16.5389C52.4396 16.3432 52.3071 16.1784 52.127 16.0846C51.7718 15.8967 51.3315 16.0323 51.1434 16.3875C51.1429 16.3884 51.1424 16.3893 51.142 16.3902C51.142 16.4103 47.4552 23.5627 36.1376 24.8091C34.6613 24.9666 33.2182 25.3517 31.8598 25.9509C29.4283 27.008 27.4202 28.8477 26.1548 31.1775C24.9734 33.3659 24.4841 35.8614 24.7516 38.3339C24.9487 40.1363 25.5507 41.8709 26.5126 43.4078C24.5024 44.8511 18.1259 49.8405 17.551 55.1958C17.5087 55.5954 17.7986 55.9537 18.1983 55.9959C18.598 56.0381 18.9561 55.7482 18.9983 55.3486C19.525 50.5682 25.5075 45.9326 27.373 44.5898C29.6124 47.3398 32.9655 48.8917 36.5638 49.145C38.9856 49.3013 41.4104 48.8883 43.6438 47.9389C46.0684 46.9216 48.2097 45.3308 49.8836 43.3032C54.1976 38.0766 56.252 29.2919 52.4929 16.5389ZM27.7911 42.6881C27.5137 42.2512 27.2691 41.7943 27.0594 41.3211C26.6179 40.3228 26.3332 39.2624 26.2151 38.1771C25.9688 35.9995 26.3894 33.7984 27.4212 31.865C28.5365 29.8152 30.3056 28.1975 32.4468 27.2696C33.6709 26.7366 34.9702 26.3962 36.2984 26.2605C43.7685 25.4564 48.1628 22.1314 50.4304 19.7191C49.0981 24.1054 46.8043 28.1393 43.7162 31.5273L43.274 27.0726C43.2514 26.6713 42.9079 26.3643 42.5066 26.3868C42.1054 26.4093 41.7983 26.7529 41.8209 27.1541C41.822 27.1739 41.8239 27.1937 41.8266 27.2133L42.3935 32.9385C39.0122 36.3679 34.3123 39.8135 27.7911 42.6881ZM48.7579 42.3705V42.3745C47.2369 44.2262 45.2887 45.6806 43.081 46.6121C41.0507 47.4701 38.8472 47.8391 36.6482 47.6896C33.5869 47.5345 30.7142 46.1639 28.6676 43.8822C31.066 42.8209 33.385 41.5888 35.6069 40.1954L41.9954 41.4016C42.3925 41.4638 42.7648 41.1923 42.827 40.7953C42.887 40.4123 42.6362 40.0495 42.2568 39.9703L37.3478 39.0415C39.6144 37.4848 41.7244 35.7115 43.6479 33.7466C43.6831 33.7162 43.7154 33.6826 43.7443 33.6461C48.8182 28.3632 50.9772 23.1365 51.8778 19.9202C54.3624 30.5181 52.4607 37.8917 48.7579 42.3705Z" fill="#00B307"/>
</g>
<defs>
<clipPath id="clip0_480_6236">
<rect width="40" height="40" fill="white" transform="translate(16 16)"/>
</clipPath>
</defs>
</svg>
