<svg width="72" height="72" viewBox="0 0 72 72" fill="none" xmlns="http://www.w3.org/2000/svg">
<rect width="72" height="72" rx="36" fill="#00B307" fill-opacity="0.1"/>
<g clip-path="url(#clip0_480_6288)">
<path d="M52.5576 26.4871C52.5576 26.3504 52.5272 26.2136 52.4664 26.0844C52.3448 25.8261 52.1093 25.6513 51.851 25.5981L36.3735 18.0912C36.1228 17.9696 35.8265 17.9696 35.5757 18.0912L19.9464 25.6665C19.6424 25.8109 19.4449 26.1148 19.4297 26.4567V26.4643C19.4297 26.4719 19.4297 26.4795 19.4297 26.4947V45.5053C19.4297 45.8548 19.6272 46.1739 19.9464 46.3259L35.5757 53.9012C35.5833 53.9012 35.5833 53.9012 35.5909 53.9088C35.6137 53.9164 35.6365 53.924 35.6593 53.9392C35.6669 53.9392 35.6745 53.9468 35.6897 53.9468C35.7125 53.9544 35.7353 53.962 35.7581 53.9696C35.7657 53.9696 35.7733 53.9772 35.7809 53.9772C35.8037 53.9848 35.8341 53.9848 35.8569 53.9924C35.8645 53.9924 35.8721 53.9924 35.8797 53.9924C35.9101 53.9924 35.9481 54 35.9784 54C36.0088 54 36.0468 54 36.0772 53.9924C36.0848 53.9924 36.0924 53.9924 36.1 53.9924C36.1228 53.9924 36.1532 53.9848 36.176 53.9772C36.1836 53.9772 36.1912 53.9696 36.1988 53.9696C36.2216 53.962 36.2444 53.9544 36.2672 53.9468C36.2748 53.9468 36.2824 53.9392 36.2976 53.9392C36.3204 53.9316 36.3432 53.924 36.3659 53.9088C36.3735 53.9088 36.3735 53.9088 36.3811 53.9012L52.0561 46.3031C52.3676 46.1511 52.5728 45.832 52.5728 45.4825V26.5099C52.5576 26.5023 52.5576 26.4947 52.5576 26.4871ZM35.9708 19.9223L49.5259 26.4947L44.534 28.9185L30.9789 22.3461L35.9708 19.9223ZM35.9708 33.0671L22.4158 26.4947L28.8894 23.3567L42.4445 29.9291L35.9708 33.0671ZM21.2532 27.9612L35.0591 34.6551V51.6218L21.2532 44.9278V27.9612ZM36.8826 51.6218V34.6551L43.3638 31.5095V35.9468C43.3638 36.4483 43.7741 36.8586 44.2756 36.8586C44.7771 36.8586 45.1874 36.4483 45.1874 35.9468V30.6205L50.734 27.9308V44.8974L36.8826 51.6218Z" fill="#00B307"/>
</g>
<defs>
<clipPath id="clip0_480_6288">
<rect width="36" height="36" fill="white" transform="translate(18 18)"/>
</clipPath>
</defs>
</svg>
