<svg width="72" height="72" viewBox="0 0 72 72" fill="none" xmlns="http://www.w3.org/2000/svg">
<rect width="72" height="72" rx="36" fill="#00B307" fill-opacity="0.1"/>
<g clip-path="url(#clip0_480_6278)">
<path d="M50.3814 49.201L48.3098 25.8543C48.2725 25.3923 47.885 25.042 47.4156 25.042H43.0488C43.0413 21.1596 39.8817 18 35.9993 18C32.1169 18 28.9573 21.1596 28.9498 25.042H24.583C24.121 25.042 23.7335 25.3923 23.6888 25.8543L21.6172 49.201C21.6172 49.2308 21.6172 49.2532 21.6172 49.283C21.6172 51.8837 24.0092 54 26.9453 54H45.0533C47.9894 54 50.3814 51.8837 50.3814 49.283C50.3814 49.2532 50.3814 49.2308 50.3814 49.201ZM35.9993 19.7884C38.8981 19.7884 41.2529 22.1432 41.2603 25.042H30.7383C30.7457 22.1432 33.1005 19.7884 35.9993 19.7884ZM45.0533 52.2041H26.9453C25.0078 52.2041 23.428 50.9149 23.4056 49.3128L25.4027 26.8305H28.9498V29.9677C28.9498 30.4595 29.3522 30.8619 29.8441 30.8619C30.3359 30.8619 30.7383 30.4595 30.7383 29.9677V26.8305H41.2603V29.9677C41.2603 30.4595 41.6627 30.8619 42.1546 30.8619C42.6464 30.8619 43.0488 30.4595 43.0488 29.9677V26.8305H46.5959L48.593 49.3202C48.5706 50.9149 46.9908 52.2041 45.0533 52.2041Z" fill="#00B307"/>
<path d="M39.7168 36.6145L34.4409 41.8904L32.2873 39.7369C31.9371 39.3866 31.3707 39.3866 31.0205 39.7369C30.6703 40.0871 30.6703 40.6534 31.0205 41.0037L33.8075 43.7907C33.9789 43.9621 34.2099 44.0515 34.4409 44.0515C34.6719 44.0515 34.8955 43.9621 35.0743 43.7907L40.9836 37.8813C41.3339 37.5311 41.3339 36.9648 40.9836 36.6145C40.6334 36.2717 40.0671 36.2717 39.7168 36.6145Z" fill="#00B307"/>
</g>
<defs>
<clipPath id="clip0_480_6278">
<rect width="36" height="36" fill="white" transform="translate(18 18)"/>
</clipPath>
</defs>
</svg>
