<svg width="154" height="59" viewBox="0 0 154 59" fill="none" xmlns="http://www.w3.org/2000/svg">
<rect width="154" height="58.4898" fill="white"/>
<g clip-path="url(#clip0_614_3748)">
<path d="M35.4266 37.0649C35.0183 38.0159 34.514 38.9228 33.9216 39.7716C33.1294 40.9003 32.4814 41.6814 31.982 42.1154C31.2079 42.8271 30.3779 43.1922 29.4894 43.2126C28.8519 43.2126 28.083 43.0312 27.1876 42.6631C26.2893 42.2968 25.4639 42.1148 24.709 42.1148C23.9174 42.1148 23.0687 42.2968 22.1604 42.6631C21.251 43.0312 20.5184 43.2231 19.9584 43.2418C19.1067 43.2786 18.2574 42.9035 17.4092 42.1154C16.8684 41.6429 16.1924 40.8344 15.3815 39.6887C14.5118 38.4649 13.7966 37.0462 13.2366 35.4281C12.6369 33.681 12.3359 31.9887 12.3359 30.3507C12.3359 28.4741 12.7414 26.856 13.5534 25.4997C14.1921 24.4101 15.0409 23.5514 16.1037 22.9202C17.1464 22.2963 18.3361 21.9605 19.5512 21.9472C20.2279 21.9472 21.1151 22.1566 22.2182 22.5679C23.3178 22.9803 24.0236 23.1897 24.3334 23.1897C24.5644 23.1897 25.3489 22.9447 26.6784 22.4571C27.936 22.0044 28.9971 21.8171 29.8663 21.8912C32.2224 22.0814 33.9922 23.0101 35.1688 24.6831C33.0624 25.9594 32.0199 27.7473 32.0409 30.041C32.0596 31.8277 32.7077 33.3146 33.9817 34.4947C34.5592 35.0431 35.2038 35.4666 35.9207 35.767C35.7704 36.205 35.6056 36.6378 35.4266 37.0649ZM30.0238 15.8047C30.0238 17.2047 29.5122 18.5126 28.4925 19.7224C27.2617 21.1615 25.7736 21.9927 24.1595 21.8615C24.1378 21.6854 24.1269 21.5081 24.1269 21.3306C24.1269 19.9866 24.7119 18.5481 25.7514 17.3716C26.2706 16.776 26.9298 16.2807 27.7301 15.8858C28.5293 15.4967 29.2841 15.2815 29.9946 15.2441C30.015 15.4314 30.0238 15.6186 30.0238 15.8041V15.8047Z" fill="#1A1A1A"/>
</g>
<path d="M51.216 17.227C51.216 18.0117 51.0547 18.69 50.732 19.262C50.4093 19.8267 49.9473 20.2593 49.346 20.56C48.752 20.8533 48.048 21 47.234 21H44.825V13.377H47.234C48.048 13.377 48.752 13.5347 49.346 13.85C49.9473 14.158 50.4093 14.6017 50.732 15.181C51.0547 15.753 51.216 16.435 51.216 17.227ZM47.234 20.23C48.1947 20.23 48.928 19.966 49.434 19.438C49.94 18.91 50.193 18.173 50.193 17.227C50.193 16.281 49.94 15.544 49.434 15.016C48.928 14.488 48.1947 14.224 47.234 14.224H45.826V20.23H47.234ZM55.1352 14.862C55.7072 14.862 56.2242 14.9903 56.6862 15.247C57.1482 15.5037 57.5112 15.8703 57.7752 16.347C58.0465 16.8237 58.1822 17.37 58.1822 17.986C58.1822 18.5947 58.0428 19.1373 57.7642 19.614C57.4855 20.0833 57.1078 20.45 56.6312 20.714C56.1545 20.9707 55.6265 21.099 55.0472 21.099C54.4825 21.099 53.9728 20.9707 53.5182 20.714C53.0708 20.4573 52.7188 20.0943 52.4622 19.625C52.2128 19.1483 52.0882 18.602 52.0882 17.986C52.0882 17.3627 52.2202 16.8163 52.4842 16.347C52.7555 15.8703 53.1222 15.5037 53.5842 15.247C54.0462 14.9903 54.5632 14.862 55.1352 14.862ZM55.1022 15.687C54.7355 15.687 54.4018 15.775 54.1012 15.951C53.8005 16.127 53.5585 16.3873 53.3752 16.732C53.1992 17.0767 53.1112 17.4947 53.1112 17.986C53.1112 18.47 53.1955 18.8843 53.3642 19.229C53.5402 19.5737 53.7748 19.834 54.0682 20.01C54.3615 20.186 54.6878 20.274 55.0472 20.274C55.4138 20.274 55.7548 20.186 56.0702 20.01C56.3928 19.8267 56.6532 19.5627 56.8512 19.218C57.0492 18.8733 57.1482 18.4627 57.1482 17.986C57.1482 17.502 57.0528 17.0877 56.8622 16.743C56.6788 16.391 56.4295 16.127 56.1142 15.951C55.8062 15.775 55.4688 15.687 55.1022 15.687ZM67.3654 14.961L65.4624 21H64.4284L63.0644 16.204L61.7004 21H60.6554L58.7414 14.961H59.7754L61.1724 19.999L62.5914 14.961H63.6254L64.9674 20.01L66.3534 14.961H67.3654ZM71.2882 14.862C71.7208 14.862 72.1132 14.961 72.4652 15.159C72.8245 15.3497 73.1068 15.6393 73.3122 16.028C73.5248 16.4093 73.6312 16.875 73.6312 17.425V21H72.6412V17.59C72.6412 16.9813 72.4945 16.5193 72.2012 16.204C71.9078 15.8887 71.5008 15.731 70.9802 15.731C70.4668 15.731 70.0598 15.8887 69.7592 16.204C69.4658 16.5193 69.3192 16.9813 69.3192 17.59V21H68.3182V14.961H69.3192V15.94C69.5172 15.588 69.7885 15.3203 70.1332 15.137C70.4778 14.9537 70.8628 14.862 71.2882 14.862ZM76.2264 12.86V21H75.2254V12.86H76.2264ZM80.5297 14.862C81.1017 14.862 81.6187 14.9903 82.0807 15.247C82.5427 15.5037 82.9057 15.8703 83.1697 16.347C83.441 16.8237 83.5767 17.37 83.5767 17.986C83.5767 18.5947 83.4374 19.1373 83.1587 19.614C82.88 20.0833 82.5024 20.45 82.0257 20.714C81.549 20.9707 81.021 21.099 80.4417 21.099C79.877 21.099 79.3674 20.9707 78.9127 20.714C78.4654 20.4573 78.1134 20.0943 77.8567 19.625C77.6074 19.1483 77.4827 18.602 77.4827 17.986C77.4827 17.3627 77.6147 16.8163 77.8787 16.347C78.15 15.8703 78.5167 15.5037 78.9787 15.247C79.4407 14.9903 79.9577 14.862 80.5297 14.862ZM80.4967 15.687C80.13 15.687 79.7964 15.775 79.4957 15.951C79.195 16.127 78.953 16.3873 78.7697 16.732C78.5937 17.0767 78.5057 17.4947 78.5057 17.986C78.5057 18.47 78.59 18.8843 78.7587 19.229C78.9347 19.5737 79.1694 19.834 79.4627 20.01C79.756 20.186 80.0824 20.274 80.4417 20.274C80.8084 20.274 81.1494 20.186 81.4647 20.01C81.7874 19.8267 82.0477 19.5627 82.2457 19.218C82.4437 18.8733 82.5427 18.4627 82.5427 17.986C82.5427 17.502 82.4474 17.0877 82.2567 16.743C82.0734 16.391 81.824 16.127 81.5087 15.951C81.2007 15.775 80.8634 15.687 80.4967 15.687ZM87.3149 14.862C87.8282 14.862 88.2756 14.983 88.6569 15.225C89.0456 15.467 89.3389 15.7823 89.5369 16.171V14.961H90.5489V21H89.5369V19.768C89.3389 20.164 89.0456 20.4867 88.6569 20.736C88.2756 20.978 87.8282 21.099 87.3149 21.099C86.7722 21.099 86.2809 20.967 85.8409 20.703C85.4082 20.4317 85.0636 20.0577 84.8069 19.581C84.5576 19.097 84.4329 18.5507 84.4329 17.942C84.4329 17.3333 84.5576 16.798 84.8069 16.336C85.0636 15.8667 85.4082 15.5037 85.8409 15.247C86.2809 14.9903 86.7722 14.862 87.3149 14.862ZM87.4909 15.731C87.1316 15.731 86.7942 15.819 86.4789 15.995C86.1709 16.171 85.9216 16.4277 85.7309 16.765C85.5476 17.095 85.4559 17.4873 85.4559 17.942C85.4559 18.3967 85.5476 18.8 85.7309 19.152C85.9216 19.4967 86.1709 19.7643 86.4789 19.955C86.7942 20.1457 87.1316 20.241 87.4909 20.241C87.8576 20.241 88.1949 20.1493 88.5029 19.966C88.8182 19.7827 89.0676 19.5223 89.2509 19.185C89.4416 18.8403 89.5369 18.4407 89.5369 17.986C89.5369 17.5313 89.4416 17.1353 89.2509 16.798C89.0676 16.4533 88.8182 16.1893 88.5029 16.006C88.1949 15.8227 87.8576 15.731 87.4909 15.731ZM94.684 14.862C95.1974 14.862 95.6447 14.983 96.026 15.225C96.4147 15.467 96.708 15.7823 96.906 16.171V12.86H97.918V21H96.906V19.768C96.708 20.164 96.4147 20.4867 96.026 20.736C95.6447 20.978 95.1974 21.099 94.684 21.099C94.1414 21.099 93.65 20.967 93.21 20.703C92.7774 20.4317 92.4327 20.0577 92.176 19.581C91.9267 19.097 91.802 18.5507 91.802 17.942C91.802 17.3333 91.9267 16.798 92.176 16.336C92.4327 15.8667 92.7774 15.5037 93.21 15.247C93.65 14.9903 94.1414 14.862 94.684 14.862ZM94.86 15.731C94.5007 15.731 94.1634 15.819 93.848 15.995C93.54 16.171 93.2907 16.4277 93.1 16.765C92.9167 17.095 92.825 17.4873 92.825 17.942C92.825 18.3967 92.9167 18.8 93.1 19.152C93.2907 19.4967 93.54 19.7643 93.848 19.955C94.1634 20.1457 94.5007 20.241 94.86 20.241C95.2267 20.241 95.564 20.1493 95.872 19.966C96.1874 19.7827 96.4367 19.5223 96.62 19.185C96.8107 18.8403 96.906 18.4407 96.906 17.986C96.906 17.5313 96.8107 17.1353 96.62 16.798C96.4367 16.4533 96.1874 16.1893 95.872 16.006C95.564 15.8227 95.2267 15.731 94.86 15.731ZM105.516 14.862C106.088 14.862 106.605 14.9903 107.067 15.247C107.529 15.5037 107.892 15.8703 108.156 16.347C108.427 16.8237 108.563 17.37 108.563 17.986C108.563 18.5947 108.424 19.1373 108.145 19.614C107.866 20.0833 107.489 20.45 107.012 20.714C106.535 20.9707 106.007 21.099 105.428 21.099C104.863 21.099 104.354 20.9707 103.899 20.714C103.452 20.4573 103.1 20.0943 102.843 19.625C102.594 19.1483 102.469 18.602 102.469 17.986C102.469 17.3627 102.601 16.8163 102.865 16.347C103.136 15.8703 103.503 15.5037 103.965 15.247C104.427 14.9903 104.944 14.862 105.516 14.862ZM105.483 15.687C105.116 15.687 104.783 15.775 104.482 15.951C104.181 16.127 103.939 16.3873 103.756 16.732C103.58 17.0767 103.492 17.4947 103.492 17.986C103.492 18.47 103.576 18.8843 103.745 19.229C103.921 19.5737 104.156 19.834 104.449 20.01C104.742 20.186 105.069 20.274 105.428 20.274C105.795 20.274 106.136 20.186 106.451 20.01C106.774 19.8267 107.034 19.5627 107.232 19.218C107.43 18.8733 107.529 18.4627 107.529 17.986C107.529 17.502 107.434 17.0877 107.243 16.743C107.06 16.391 106.81 16.127 106.495 15.951C106.187 15.775 105.85 15.687 105.483 15.687ZM112.785 14.862C113.218 14.862 113.61 14.961 113.962 15.159C114.322 15.3497 114.604 15.6393 114.809 16.028C115.022 16.4093 115.128 16.875 115.128 17.425V21H114.138V17.59C114.138 16.9813 113.992 16.5193 113.698 16.204C113.405 15.8887 112.998 15.731 112.477 15.731C111.964 15.731 111.557 15.8887 111.256 16.204C110.963 16.5193 110.816 16.9813 110.816 17.59V21H109.815V14.961H110.816V15.94C111.014 15.588 111.286 15.3203 111.63 15.137C111.975 14.9537 112.36 14.862 112.785 14.862ZM122.825 20.186V21H121.813C121.3 21 120.908 20.8753 120.636 20.626C120.372 20.3767 120.24 19.9843 120.24 19.449V15.775H119.459V14.961H120.24V13.465H121.252V14.961H122.814V15.775H121.252V19.449C121.252 19.7203 121.307 19.911 121.417 20.021C121.527 20.131 121.722 20.186 122 20.186H122.825ZM126.9 14.862C127.333 14.862 127.725 14.961 128.077 15.159C128.437 15.3497 128.719 15.6393 128.924 16.028C129.137 16.4093 129.243 16.875 129.243 17.425V21H128.253V17.59C128.253 16.9813 128.107 16.5193 127.813 16.204C127.52 15.8887 127.113 15.731 126.592 15.731C126.079 15.731 125.672 15.8887 125.371 16.204C125.078 16.5193 124.931 16.9813 124.931 17.59V21H123.93V12.86H124.931V15.94C125.129 15.588 125.401 15.3203 125.745 15.137C126.09 14.9537 126.475 14.862 126.9 14.862ZM136.316 17.733C136.316 17.9457 136.301 18.1437 136.272 18.327H131.465C131.494 18.9283 131.681 19.405 132.026 19.757C132.378 20.1017 132.825 20.274 133.368 20.274C133.778 20.274 134.123 20.1823 134.402 19.999C134.688 19.8157 134.897 19.5737 135.029 19.273H136.107C135.916 19.801 135.586 20.2373 135.117 20.582C134.655 20.9267 134.072 21.099 133.368 21.099C132.803 21.099 132.297 20.9707 131.85 20.714C131.41 20.4573 131.065 20.0943 130.816 19.625C130.566 19.1483 130.442 18.602 130.442 17.986C130.442 17.3627 130.566 16.8163 130.816 16.347C131.065 15.8703 131.417 15.5037 131.872 15.247C132.326 14.9903 132.851 14.862 133.445 14.862C134.009 14.862 134.508 14.9867 134.941 15.236C135.373 15.4853 135.711 15.8263 135.953 16.259C136.195 16.6917 136.316 17.183 136.316 17.733ZM135.271 17.601C135.271 17.2123 135.186 16.875 135.018 16.589C134.849 16.2957 134.618 16.072 134.325 15.918C134.039 15.764 133.72 15.687 133.368 15.687C132.847 15.687 132.411 15.8593 132.059 16.204C131.707 16.5413 131.512 17.007 131.476 17.601H135.271Z" fill="#4D4D4D"/>
<path d="M51.904 39.728H47.248L46.448 42H44.544L48.528 30.864H50.64L54.624 42H52.704L51.904 39.728ZM51.408 38.304L49.584 33.072L47.744 38.304H51.408ZM61.2523 33.04C62.0203 33.04 62.7189 33.232 63.3483 33.616C63.9883 33.9893 64.4896 34.5173 64.8523 35.2C65.2149 35.8827 65.3963 36.6667 65.3963 37.552C65.3963 38.4373 65.2149 39.232 64.8523 39.936C64.4896 40.6293 63.9883 41.1733 63.3483 41.568C62.7189 41.952 62.0203 42.144 61.2523 42.144C60.5589 42.144 59.9509 41.984 59.4283 41.664C58.9056 41.3333 58.4896 40.896 58.1803 40.352V46.192H56.3563V33.184H58.1803V34.752C58.4789 34.24 58.8896 33.8293 59.4123 33.52C59.9456 33.2 60.5589 33.04 61.2523 33.04ZM60.8523 34.624C60.3936 34.624 59.9563 34.7413 59.5403 34.976C59.1349 35.2107 58.8043 35.552 58.5483 36C58.3029 36.448 58.1803 36.976 58.1803 37.584C58.1803 38.192 58.3029 38.7253 58.5483 39.184C58.8043 39.632 59.1349 39.9733 59.5403 40.208C59.9563 40.4427 60.3936 40.56 60.8523 40.56C61.3216 40.56 61.7589 40.4427 62.1643 40.208C62.5803 39.9627 62.9109 39.6107 63.1562 39.152C63.4123 38.6933 63.5403 38.16 63.5403 37.552C63.5403 36.944 63.4123 36.4213 63.1562 35.984C62.9109 35.536 62.5803 35.2 62.1643 34.976C61.7589 34.7413 61.3216 34.624 60.8523 34.624ZM72.096 33.04C72.864 33.04 73.5627 33.232 74.192 33.616C74.832 33.9893 75.3333 34.5173 75.696 35.2C76.0587 35.8827 76.24 36.6667 76.24 37.552C76.24 38.4373 76.0587 39.232 75.696 39.936C75.3333 40.6293 74.832 41.1733 74.192 41.568C73.5627 41.952 72.864 42.144 72.096 42.144C71.4027 42.144 70.7947 41.984 70.272 41.664C69.7493 41.3333 69.3333 40.896 69.024 40.352V46.192H67.2V33.184H69.024V34.752C69.3227 34.24 69.7333 33.8293 70.256 33.52C70.7893 33.2 71.4027 33.04 72.096 33.04ZM71.696 34.624C71.2373 34.624 70.8 34.7413 70.384 34.976C69.9787 35.2107 69.648 35.552 69.392 36C69.1467 36.448 69.024 36.976 69.024 37.584C69.024 38.192 69.1467 38.7253 69.392 39.184C69.648 39.632 69.9787 39.9733 70.384 40.208C70.8 40.4427 71.2373 40.56 71.696 40.56C72.1653 40.56 72.6027 40.4427 73.008 40.208C73.424 39.9627 73.7547 39.6107 74 39.152C74.256 38.6933 74.384 38.16 74.384 37.552C74.384 36.944 74.256 36.4213 74 35.984C73.7547 35.536 73.424 35.2 73.008 34.976C72.6027 34.7413 72.1653 34.624 71.696 34.624ZM90.3446 38.832C90.3446 39.3973 90.19 39.9307 89.8806 40.432C89.582 40.9333 89.1393 41.3387 88.5526 41.648C87.966 41.9573 87.278 42.112 86.4886 42.112C85.3473 42.112 84.414 41.84 83.6886 41.296C82.9633 40.752 82.6006 40 82.6006 39.04H84.5526C84.5953 39.5307 84.7766 39.92 85.0966 40.208C85.4166 40.496 85.8806 40.64 86.4886 40.64C87.118 40.64 87.6086 40.48 87.9606 40.16C88.3233 39.84 88.5046 39.4293 88.5046 38.928C88.5046 38.5333 88.3926 38.224 88.1686 38C87.9553 37.7653 87.6833 37.5893 87.3526 37.472C87.022 37.344 86.5686 37.2107 85.9926 37.072C85.2673 36.9013 84.6806 36.7253 84.2326 36.544C83.7846 36.352 83.4006 36.0533 83.0806 35.648C82.7606 35.232 82.6006 34.672 82.6006 33.968C82.6006 33.328 82.7606 32.7627 83.0806 32.272C83.4006 31.7813 83.8486 31.4027 84.4246 31.136C85.0006 30.8693 85.662 30.736 86.4086 30.736C87.4966 30.736 88.3713 30.992 89.0326 31.504C89.7046 32.016 90.078 32.7573 90.1526 33.728H88.1366C88.094 33.3013 87.9126 32.944 87.5926 32.656C87.2726 32.368 86.846 32.224 86.3126 32.224C85.758 32.224 85.31 32.3627 84.9686 32.64C84.6273 32.9173 84.4566 33.328 84.4566 33.872C84.4566 34.2667 84.5633 34.5867 84.7766 34.832C85.0006 35.0667 85.278 35.248 85.6086 35.376C85.9393 35.4933 86.398 35.6213 86.9846 35.76C87.6993 35.9307 88.2806 36.112 88.7286 36.304C89.1766 36.4853 89.5553 36.7787 89.8646 37.184C90.1846 37.5787 90.3446 38.128 90.3446 38.832ZM94.6249 34.672V39.552C94.6249 39.8827 94.6995 40.1227 94.8489 40.272C95.0089 40.4107 95.2755 40.48 95.6489 40.48H96.7689V42H95.3289C94.5075 42 93.8782 41.808 93.4409 41.424C93.0035 41.04 92.7849 40.416 92.7849 39.552V34.672H91.7449V33.184H92.7849V30.992H94.6249V33.184H96.7689V34.672H94.6249ZM102.354 33.04C103.197 33.04 103.959 33.2267 104.642 33.6C105.325 33.9733 105.863 34.5067 106.258 35.2C106.653 35.8933 106.85 36.688 106.85 37.584C106.85 38.48 106.647 39.2747 106.242 39.968C105.837 40.6613 105.282 41.2 104.578 41.584C103.885 41.9573 103.117 42.144 102.274 42.144C101.442 42.144 100.69 41.9573 100.018 41.584C99.346 41.2 98.818 40.6667 98.434 39.984C98.05 39.2907 97.858 38.4907 97.858 37.584C97.858 36.688 98.0553 35.8933 98.45 35.2C98.8447 34.5067 99.3833 33.9733 100.066 33.6C100.749 33.2267 101.511 33.04 102.354 33.04ZM102.322 34.576C101.853 34.576 101.421 34.6933 101.026 34.928C100.631 35.152 100.311 35.4933 100.066 35.952C99.8313 36.4 99.714 36.944 99.714 37.584C99.714 38.224 99.826 38.7733 100.05 39.232C100.285 39.6907 100.594 40.0373 100.978 40.272C101.373 40.496 101.805 40.608 102.274 40.608C102.743 40.608 103.181 40.4907 103.586 40.256C104.002 40.0213 104.338 39.68 104.594 39.232C104.85 38.7733 104.978 38.224 104.978 37.584C104.978 36.944 104.855 36.4 104.61 35.952C104.365 35.4933 104.039 35.152 103.634 34.928C103.229 34.6933 102.791 34.576 102.322 34.576ZM110.477 34.72C110.744 34.1867 111.096 33.776 111.533 33.488C111.981 33.1893 112.509 33.04 113.117 33.04V34.928H112.653C111.938 34.928 111.394 35.1093 111.021 35.472C110.658 35.8347 110.477 36.464 110.477 37.36V42H108.653V33.184H110.477V34.72ZM122.874 37.344C122.874 37.6533 122.852 37.9413 122.81 38.208H116.058C116.1 38.944 116.346 39.5307 116.794 39.968C117.252 40.3947 117.823 40.608 118.506 40.608C119.498 40.608 120.196 40.1973 120.602 39.376H122.57C122.303 40.1867 121.818 40.8533 121.114 41.376C120.41 41.888 119.54 42.144 118.506 42.144C117.663 42.144 116.916 41.9573 116.266 41.584C115.615 41.2 115.103 40.6667 114.73 39.984C114.367 39.2907 114.186 38.4907 114.186 37.584C114.186 36.6773 114.367 35.8827 114.73 35.2C115.103 34.5067 115.62 33.9733 116.282 33.6C116.954 33.2267 117.722 33.04 118.586 33.04C119.418 33.04 120.159 33.2213 120.81 33.584C121.46 33.9467 121.967 34.4533 122.33 35.104C122.692 35.7547 122.874 36.5013 122.874 37.344ZM120.97 36.96C120.959 36.2347 120.719 35.6587 120.25 35.232C119.78 34.7947 119.199 34.576 118.506 34.576C117.855 34.576 117.3 34.7947 116.842 35.232C116.394 35.6587 116.138 36.2347 116.074 36.96H120.97Z" fill="#1A1A1A"/>
<defs>
<clipPath id="clip0_614_3748">
<rect width="28" height="28" fill="white" transform="translate(10 15.2441)"/>
</clipPath>
</defs>
</svg>
