<svg width="141" height="38" viewBox="0 0 141 38" fill="none" xmlns="http://www.w3.org/2000/svg">
<path d="M31.2749 7.34308C27.4022 7.34308 21.9311 7.66711 19.1352 10.4615C17.9247 11.672 17.3202 13.6454 17.4771 15.8789C17.4975 16.174 17.6937 16.4253 17.9756 16.5184C18.256 16.6099 18.5641 16.5241 18.7559 16.2989C20.3108 14.4694 22.2435 13.0032 24.5046 11.9409C24.6964 11.8494 24.9231 11.8421 25.1295 11.9147C25.3111 11.9801 25.4535 12.1036 25.5276 12.2621C25.6816 12.5876 25.6322 13.0163 25.1207 13.2575C25.0917 13.272 25.0655 13.2909 25.0365 13.304C25.0263 13.3083 25.0147 13.3069 25.006 13.3113C19.4346 15.9299 16.6954 20.4986 15.4514 25.1966C14.5446 19.3143 12.6294 15.8514 10.8202 13.7254C9.51095 12.0282 8.22341 11.1286 7.47943 10.62C7.34136 10.5256 6.92435 10.2408 6.7514 10.0678C6.46803 9.78445 6.46803 9.32378 6.7514 9.04041C7.03477 8.75848 7.49687 8.75848 7.81218 9.07236C7.88923 9.14068 8.01272 9.22787 8.16966 9.3325L8.29902 9.41969C9.35108 10.1404 11.31 11.4788 13.0479 14.3604C13.2034 14.6176 13.5042 14.7557 13.7963 14.7005C14.0928 14.6481 14.3252 14.42 14.3834 14.125C14.7627 12.188 14.5927 9.31356 12.8649 7.58578C10.069 4.79278 4.59789 4.46875 0.726671 4.46875C0.32553 4.46868 0 4.79421 0 5.19528C0 9.06793 0.324032 14.5391 3.11846 17.335C4.28387 18.5004 6.08147 19.0236 7.86736 19.0236C9.32486 19.0236 10.7533 18.6588 11.8476 18.0267C13.3399 21.119 14.5316 25.7386 14.5316 32.8053C14.5316 33.2064 14.8571 33.5319 15.2582 33.5319C15.6592 33.5319 15.9848 33.2064 15.9848 32.8053C15.9848 28.8629 16.6605 24.1314 19.173 20.2369C20.18 21.2207 21.9137 21.8441 23.8347 21.9022C23.9306 21.9052 24.0251 21.9066 24.1195 21.9066C26.0711 21.9066 27.796 21.2948 28.8815 20.2078C31.6773 17.412 31.9999 11.9408 31.9999 8.06811C32.0015 7.66711 31.6774 7.34308 31.2749 7.34308Z" fill="#8900BA"/>
<path d="M57.408 23.664C57.408 24.7947 57.0987 25.8613 56.48 26.864C55.8827 27.8667 54.9973 28.6773 53.824 29.296C52.6507 29.9147 51.2747 30.224 49.696 30.224C47.4133 30.224 45.5467 29.68 44.096 28.592C42.6453 27.504 41.92 26 41.92 24.08H45.824C45.9093 25.0613 46.272 25.84 46.912 26.416C47.552 26.992 48.48 27.28 49.696 27.28C50.9547 27.28 51.936 26.96 52.64 26.32C53.3653 25.68 53.728 24.8587 53.728 23.856C53.728 23.0667 53.504 22.448 53.056 22C52.6293 21.5307 52.0853 21.1787 51.424 20.944C50.7627 20.688 49.856 20.4213 48.704 20.144C47.2533 19.8027 46.08 19.4507 45.184 19.088C44.288 18.704 43.52 18.1067 42.88 17.296C42.24 16.464 41.92 15.344 41.92 13.936C41.92 12.656 42.24 11.5253 42.88 10.544C43.52 9.56267 44.416 8.80533 45.568 8.272C46.72 7.73867 48.0427 7.472 49.536 7.472C51.712 7.472 53.4613 7.984 54.784 9.008C56.128 10.032 56.8747 11.5147 57.024 13.456H52.992C52.9067 12.6027 52.544 11.888 51.904 11.312C51.264 10.736 50.4107 10.448 49.344 10.448C48.2347 10.448 47.3387 10.7253 46.656 11.28C45.9733 11.8347 45.632 12.656 45.632 13.744C45.632 14.5333 45.8453 15.1733 46.272 15.664C46.72 16.1333 47.2747 16.496 47.936 16.752C48.5973 16.9867 49.5147 17.2427 50.688 17.52C52.1173 17.8613 53.28 18.224 54.176 18.608C55.072 18.9707 55.8293 19.5573 56.448 20.368C57.088 21.1573 57.408 22.256 57.408 23.664ZM67.8565 12.08C69.2432 12.08 70.4592 12.4 71.5045 13.04C72.5712 13.6587 73.3925 14.48 73.9685 15.504V12.368H77.6485V30H73.9685V26.704C73.3712 27.792 72.5498 28.6667 71.5045 29.328C70.4592 29.968 69.2432 30.288 67.8565 30.288C66.3205 30.288 64.9125 29.904 63.6325 29.136C62.3738 28.3467 61.3712 27.2587 60.6245 25.872C59.8992 24.464 59.5365 22.8747 59.5365 21.104C59.5365 19.3333 59.8992 17.7653 60.6245 16.4C61.3712 15.0347 62.3738 13.9787 63.6325 13.232C64.9125 12.464 66.3205 12.08 67.8565 12.08ZM68.6245 15.248C67.6858 15.248 66.8112 15.4827 66.0005 15.952C65.1898 16.4 64.5285 17.072 64.0165 17.968C63.5258 18.8427 63.2805 19.888 63.2805 21.104C63.2805 22.32 63.5258 23.3867 64.0165 24.304C64.5285 25.2213 65.1898 25.9253 66.0005 26.416C66.8325 26.8853 67.7072 27.12 68.6245 27.12C69.5632 27.12 70.4378 26.8853 71.2485 26.416C72.0592 25.9467 72.7098 25.264 73.2005 24.368C73.7125 23.4507 73.9685 22.384 73.9685 21.168C73.9685 19.952 73.7125 18.896 73.2005 18C72.7098 17.104 72.0592 16.4213 71.2485 15.952C70.4378 15.4827 69.5632 15.248 68.6245 15.248ZM85.128 15.44C85.6613 14.3733 86.3653 13.552 87.24 12.976C88.136 12.3787 89.192 12.08 90.408 12.08V15.856H89.48C88.0507 15.856 86.9627 16.2187 86.216 16.944C85.4907 17.6693 85.128 18.928 85.128 20.72V30H81.48V12.368H85.128V15.44ZM99.7772 21.2L107.905 30H102.977L96.4492 22.416V30H92.8012V6.32H96.4492V20.08L102.849 12.368H107.905L99.7772 21.2ZM116.664 12.08C118.051 12.08 119.267 12.4 120.312 13.04C121.379 13.6587 122.2 14.48 122.776 15.504V12.368H126.456V30H122.776V26.704C122.179 27.792 121.357 28.6667 120.312 29.328C119.267 29.968 118.051 30.288 116.664 30.288C115.128 30.288 113.72 29.904 112.44 29.136C111.181 28.3467 110.179 27.2587 109.432 25.872C108.707 24.464 108.344 22.8747 108.344 21.104C108.344 19.3333 108.707 17.7653 109.432 16.4C110.179 15.0347 111.181 13.9787 112.44 13.232C113.72 12.464 115.128 12.08 116.664 12.08ZM117.432 15.248C116.493 15.248 115.619 15.4827 114.808 15.952C113.997 16.4 113.336 17.072 112.824 17.968C112.333 18.8427 112.088 19.888 112.088 21.104C112.088 22.32 112.333 23.3867 112.824 24.304C113.336 25.2213 113.997 25.9253 114.808 26.416C115.64 26.8853 116.515 27.12 117.432 27.12C118.371 27.12 119.245 26.8853 120.056 26.416C120.867 25.9467 121.517 25.264 122.008 24.368C122.52 23.4507 122.776 22.384 122.776 21.168C122.776 19.952 122.52 18.896 122.008 18C121.517 17.104 120.867 16.4213 120.056 15.952C119.245 15.4827 118.371 15.248 117.432 15.248ZM133.935 15.44C134.469 14.3733 135.173 13.552 136.047 12.976C136.943 12.3787 137.999 12.08 139.215 12.08V15.856H138.287C136.858 15.856 135.77 16.2187 135.023 16.944C134.298 17.6693 133.935 18.928 133.935 20.72V30H130.287V12.368H133.935V15.44Z" fill="#002603"/>
</svg>
