<svg width="259" height="32" viewBox="0 0 259 32" fill="none" xmlns="http://www.w3.org/2000/svg">
<rect x="0.661765" y="0.778952" width="43.6765" height="30.4412" rx="4.63235" fill="white" stroke="#D9D9D9" stroke-width="1.32353"/>
<path fill-rule="evenodd" clip-rule="evenodd" d="M12.5066 11.1586C12.1289 11.6243 11.5245 11.9917 10.9202 11.9392C10.8447 11.3094 11.1405 10.6403 11.4868 10.2271C11.8645 9.74821 12.5255 9.4071 13.0606 9.38086C13.1235 10.0368 12.878 10.6797 12.5066 11.1586ZM13.0535 12.0649C12.5211 12.033 12.0353 12.2318 11.6429 12.3923C11.3904 12.4957 11.1765 12.5832 11.0138 12.5832C10.8313 12.5832 10.6086 12.491 10.3586 12.3875C10.031 12.2519 9.65651 12.0969 9.26377 12.1043C8.36356 12.1174 7.5263 12.6488 7.06675 13.495C6.12247 15.1874 6.82124 17.6932 7.73404 19.0708C8.181 19.753 8.71609 20.5008 9.42115 20.4746C9.73134 20.4624 9.95446 20.3637 10.1854 20.2616C10.4512 20.1441 10.7274 20.022 11.1586 20.022C11.5749 20.022 11.839 20.1409 12.0925 20.2551C12.3336 20.3636 12.565 20.4679 12.9087 20.4615C13.6389 20.4484 14.0985 19.7793 14.5454 19.097C15.0278 18.3648 15.2397 17.6502 15.2719 17.5418L15.2757 17.5293C15.2753 17.5289 15.2738 17.528 15.2712 17.5267L15.2584 17.5206C15.0972 17.4437 13.8648 16.8558 13.853 15.2792C13.8411 13.956 14.8305 13.2855 14.9862 13.18C14.9957 13.1736 15.0021 13.1692 15.005 13.167C14.3755 12.1961 13.3934 12.0912 13.0535 12.0649ZM18.105 20.3883V10.1615H21.7877C23.6888 10.1615 25.0171 11.526 25.0171 13.5202C25.0171 15.5143 23.6637 16.8919 21.7373 16.8919H19.6284V20.3883H18.105ZM19.6353 11.5006H21.3917C22.7137 11.5006 23.4691 12.2353 23.4691 13.5276C23.4691 14.8198 22.7137 15.5611 21.3854 15.5611H19.6353V11.5006ZM30.0469 19.1615C29.644 19.9618 28.7564 20.4669 27.7995 20.4669C26.3831 20.4669 25.3948 19.5879 25.3948 18.2628C25.3948 16.9508 26.3516 16.1965 28.1206 16.0849L30.0217 15.9669V15.4027C30.0217 14.5696 29.4992 14.117 28.5675 14.117C27.7995 14.117 27.2393 14.5303 27.1259 15.16H25.7536C25.7977 13.8349 26.9937 12.8706 28.6116 12.8706C30.3554 12.8706 31.4885 13.8218 31.4885 15.2978V20.3882H30.0784V19.1615H30.0469ZM28.212 19.2523C27.3999 19.2523 26.8837 18.8456 26.8837 18.2224C26.8837 17.5796 27.3811 17.2057 28.3316 17.1466L30.025 17.0351V17.6124C30.025 18.5701 29.2444 19.2523 28.212 19.2523ZM36.1704 20.7882C35.5597 22.579 34.861 23.1694 33.3753 23.1694C33.262 23.1694 32.8843 23.1562 32.7961 23.13V21.9033C32.8906 21.9164 33.1235 21.9296 33.2431 21.9296C33.9167 21.9296 34.2944 21.6344 34.5273 20.8669L34.6658 20.4142L32.0848 12.9689H33.6775L35.4716 19.0104H35.5031L37.2972 12.9689H38.8458L36.1704 20.7882Z" fill="black"/>
<rect x="49.6471" y="1.11776" width="42.7059" height="29.7647" rx="4.52941" fill="white" stroke="#D9D9D9" stroke-width="1.29412"/>
<path fill-rule="evenodd" clip-rule="evenodd" d="M62.9034 20.9924H60.2379L58.2391 13.1424C58.1442 12.7814 57.9428 12.4621 57.6464 12.3117C56.9069 11.9336 56.0921 11.6326 55.2031 11.4809V11.1787H59.4971C60.0897 11.1787 60.5342 11.6326 60.6083 12.1599L61.6454 17.8223L64.3097 11.1787H66.9011L62.9034 20.9924ZM68.3869 20.9924H65.8695L67.9424 11.1787H70.4598L68.3869 20.9924ZM73.7161 13.8962C73.7901 13.3676 74.2346 13.0654 74.7532 13.0654C75.568 12.9895 76.4557 13.1413 77.1965 13.5181L77.641 11.4052C76.9002 11.1029 76.0853 10.9512 75.3458 10.9512C72.9025 10.9512 71.1246 12.3105 71.1246 14.1971C71.1246 15.6324 72.3839 16.386 73.2729 16.8399C74.2346 17.2926 74.605 17.5948 74.5309 18.0475C74.5309 18.7266 73.7901 19.0288 73.0506 19.0288C72.1617 19.0288 71.2727 18.8024 70.4592 18.4243L70.0147 20.5386C70.9037 20.9154 71.8654 21.0671 72.7543 21.0671C75.494 21.1417 77.1965 19.7837 77.1965 17.7453C77.1965 15.1784 73.7161 15.0279 73.7161 13.8962ZM86.0065 20.9924L84.0077 11.1787H81.8607C81.4162 11.1787 80.9718 11.4809 80.8236 11.9336L77.1222 20.9924H79.7137L80.231 19.5585H83.4151L83.7114 20.9924H86.0065ZM82.2268 13.82L82.9663 17.5186H80.8934L82.2268 13.82Z" fill="#172B85"/>
<rect x="97.6471" y="1.11776" width="42.7059" height="29.7647" rx="4.52941" fill="white" stroke="#D9D9D9" stroke-width="1.29412"/>
<path d="M115.117 30.1795L139.705 22.7383V26.2971C139.705 28.4413 137.967 30.1795 135.823 30.1795H115.117Z" fill="#FD6020"/>
<path fill-rule="evenodd" clip-rule="evenodd" d="M135.041 12.2633C136.394 12.2633 137.138 12.8891 137.138 14.0711C137.205 14.975 136.597 15.7398 135.785 15.8788L137.611 18.4514H136.191L134.635 15.9484H134.5V18.4514H133.35V12.2633H135.041ZM134.503 15.1137H134.841C135.585 15.1137 135.923 14.7661 135.923 14.1403C135.923 13.5841 135.585 13.2364 134.841 13.2364H134.503V15.1137ZM129.354 18.4513H132.6V17.4084H130.504V15.7397H132.533V14.6967H130.504V13.3061H132.6V12.2632H129.354V18.4513ZM125.98 16.435L124.424 12.2632H123.207L125.709 18.5904H126.318L128.821 12.2632H127.603L125.98 16.435ZM112.247 15.3911C112.247 17.1293 113.6 18.5894 115.291 18.5894C115.832 18.5894 116.305 18.4504 116.779 18.2418V16.8512C116.441 17.2684 115.967 17.5465 115.426 17.5465C114.344 17.5465 113.465 16.7121 113.465 15.5997V15.4606C113.397 14.3481 114.276 13.3747 115.359 13.3052C115.9 13.3052 116.441 13.5833 116.779 14.0005V12.6099C116.373 12.3318 115.832 12.2623 115.359 12.2623C113.6 12.1232 112.247 13.5833 112.247 15.3911ZM110.149 14.6266C109.473 14.3485 109.27 14.2094 109.27 13.8618C109.337 13.4446 109.675 13.0969 110.081 13.1665C110.419 13.1665 110.758 13.3751 111.028 13.6532L111.637 12.8188C111.163 12.4016 110.555 12.1235 109.946 12.1235C108.999 12.054 108.187 12.8188 108.12 13.7922V13.8618C108.12 14.6961 108.458 15.1828 109.54 15.5305C109.811 15.6 110.081 15.739 110.352 15.8781C110.555 16.0172 110.69 16.2257 110.69 16.5039C110.69 16.9906 110.284 17.4077 109.878 17.4077H109.811C109.27 17.4077 108.796 17.0601 108.593 16.5734L107.849 17.3382C108.255 18.103 109.067 18.5202 109.878 18.5202C110.961 18.5897 111.84 17.7554 111.907 16.6429V16.4343C111.84 15.6 111.502 15.1828 110.149 14.6266ZM106.232 18.4513H107.381V12.2632H106.232V18.4513ZM100.883 12.2633H102.574H102.912C104.535 12.3329 105.82 13.7234 105.753 15.3921C105.753 16.296 105.347 17.1304 104.67 17.7561C104.062 18.2428 103.318 18.5209 102.574 18.4514H100.883V12.2633ZM102.374 17.4076C102.915 17.4771 103.523 17.2685 103.929 16.9209C104.335 16.5037 104.538 15.9475 104.538 15.3217C104.538 14.7655 104.335 14.2092 103.929 13.7921C103.523 13.4444 102.915 13.2358 102.374 13.3054H102.035V17.4076H102.374Z" fill="black"/>
<path fill-rule="evenodd" clip-rule="evenodd" d="M120.228 12.1191C118.538 12.1191 117.117 13.5097 117.117 15.3175C117.117 17.0557 118.47 18.5158 120.228 18.5853C121.987 18.6549 123.34 17.1948 123.407 15.387C123.34 13.5792 121.987 12.1191 120.228 12.1191V12.1191Z" fill="#FD6020"/>
<rect x="145.5" y="0.5" width="64" height="31" rx="3.5" fill="white" stroke="#D9D9D9"/>
<g clip-path="url(#clip0_480_4791)">
<path d="M158.708 9.04102H152.292C151.785 9.04102 151.375 9.45142 151.375 9.95768V13.166C151.375 13.6723 151.785 14.0827 152.292 14.0827H158.708C159.215 14.0827 159.625 13.6723 159.625 13.166V9.95768C159.625 9.45142 159.215 9.04102 158.708 9.04102Z" stroke="#1A1A1A" stroke-width="0.916667" stroke-linecap="round" stroke-linejoin="round"/>
<path d="M153.211 9.04102V7.20768C153.211 6.59989 153.452 6.017 153.882 5.58723C154.312 5.15746 154.895 4.91602 155.503 4.91602C156.11 4.91602 156.693 5.15746 157.123 5.58723C157.553 6.017 157.794 6.59989 157.794 7.20768V9.04102" stroke="#1A1A1A" stroke-width="0.916667" stroke-linecap="round" stroke-linejoin="round"/>
</g>
<path d="M168.797 10.866C168.797 11.2473 168.698 11.6067 168.5 11.944C168.302 12.2813 168.009 12.5563 167.62 12.769C167.231 12.9743 166.766 13.077 166.223 13.077C165.739 13.077 165.303 13 164.914 12.846C164.525 12.6847 164.217 12.4573 163.99 12.164C163.77 11.8633 163.66 11.5077 163.66 11.097H164.727C164.756 11.4417 164.892 11.7203 165.134 11.933C165.383 12.1457 165.746 12.252 166.223 12.252C166.714 12.252 167.103 12.1273 167.389 11.878C167.675 11.6287 167.818 11.3097 167.818 10.921C167.818 10.6277 167.737 10.3967 167.576 10.228C167.415 10.052 167.213 9.92 166.971 9.832C166.729 9.744 166.406 9.656 166.003 9.568C165.497 9.45067 165.086 9.32967 164.771 9.205C164.463 9.08033 164.199 8.87867 163.979 8.6C163.766 8.32133 163.66 7.93633 163.66 7.445C163.66 7.01967 163.763 6.64567 163.968 6.323C164.173 6.00033 164.467 5.751 164.848 5.575C165.237 5.39167 165.688 5.3 166.201 5.3C166.898 5.3 167.462 5.47233 167.895 5.817C168.335 6.15433 168.588 6.62367 168.654 7.225H167.543C167.514 6.92433 167.371 6.66767 167.114 6.455C166.865 6.24233 166.527 6.136 166.102 6.136C165.669 6.136 165.317 6.246 165.046 6.466C164.775 6.67867 164.639 6.994 164.639 7.412C164.639 7.71267 164.72 7.951 164.881 8.127C165.042 8.303 165.24 8.435 165.475 8.523C165.717 8.611 166.051 8.70267 166.476 8.798C166.975 8.91533 167.378 9.03633 167.686 9.161C167.994 9.27833 168.254 9.47267 168.467 9.744C168.687 10.0153 168.797 10.3893 168.797 10.866ZM175.759 9.733C175.759 9.94567 175.744 10.1437 175.715 10.327H170.908C170.937 10.9283 171.124 11.405 171.469 11.757C171.821 12.1017 172.268 12.274 172.811 12.274C173.222 12.274 173.566 12.1823 173.845 11.999C174.131 11.8157 174.34 11.5737 174.472 11.273H175.55C175.359 11.801 175.029 12.2373 174.56 12.582C174.098 12.9267 173.515 13.099 172.811 13.099C172.246 13.099 171.74 12.9707 171.293 12.714C170.853 12.4573 170.508 12.0943 170.259 11.625C170.01 11.1483 169.885 10.602 169.885 9.986C169.885 9.36267 170.01 8.81633 170.259 8.347C170.508 7.87033 170.86 7.50367 171.315 7.247C171.77 6.99033 172.294 6.862 172.888 6.862C173.453 6.862 173.951 6.98667 174.384 7.236C174.817 7.48533 175.154 7.82633 175.396 8.259C175.638 8.69167 175.759 9.183 175.759 9.733ZM174.714 9.601C174.714 9.21233 174.63 8.875 174.461 8.589C174.292 8.29567 174.061 8.072 173.768 7.918C173.482 7.764 173.163 7.687 172.811 7.687C172.29 7.687 171.854 7.85933 171.502 8.204C171.15 8.54133 170.956 9.007 170.919 9.601H174.714ZM179.536 6.862C180.262 6.862 180.852 7.03067 181.307 7.368C181.769 7.70533 182.091 8.18567 182.275 8.809H181.197C181.079 8.457 180.878 8.182 180.592 7.984C180.306 7.786 179.954 7.687 179.536 7.687C178.964 7.687 178.502 7.88867 178.15 8.292C177.805 8.688 177.633 9.25267 177.633 9.986C177.633 10.712 177.805 11.2767 178.15 11.68C178.502 12.076 178.964 12.274 179.536 12.274C179.961 12.274 180.313 12.1787 180.592 11.988C180.87 11.7973 181.072 11.5187 181.197 11.152H182.275C182.091 11.746 181.765 12.219 181.296 12.571C180.834 12.923 180.247 13.099 179.536 13.099C178.971 13.099 178.465 12.9707 178.018 12.714C177.578 12.4573 177.233 12.0943 176.984 11.625C176.734 11.1483 176.61 10.602 176.61 9.986C176.61 9.36267 176.734 8.81633 176.984 8.347C177.233 7.87033 177.578 7.50367 178.018 7.247C178.458 6.99033 178.964 6.862 179.536 6.862ZM188.859 6.961V13H187.858V12.032C187.66 12.384 187.389 12.6517 187.044 12.835C186.7 13.011 186.315 13.099 185.889 13.099C185.457 13.099 185.061 13.0037 184.701 12.813C184.349 12.615 184.067 12.3253 183.854 11.944C183.649 11.5627 183.546 11.097 183.546 10.547V6.961H184.536V10.382C184.536 10.9833 184.683 11.4453 184.976 11.768C185.277 12.0833 185.684 12.241 186.197 12.241C186.711 12.241 187.114 12.0833 187.407 11.768C187.708 11.4453 187.858 10.9833 187.858 10.382V6.961H188.859ZM191.51 7.984C191.869 7.236 192.481 6.862 193.347 6.862V7.907H193.083C192.569 7.907 192.177 8.04267 191.906 8.314C191.642 8.578 191.51 9.04 191.51 9.7V13H190.509V6.961H191.51V7.984ZM200.036 9.733C200.036 9.94567 200.022 10.1437 199.992 10.327H195.185C195.215 10.9283 195.402 11.405 195.746 11.757C196.098 12.1017 196.546 12.274 197.088 12.274C197.499 12.274 197.844 12.1823 198.122 11.999C198.408 11.8157 198.617 11.5737 198.749 11.273H199.827C199.637 11.801 199.307 12.2373 198.837 12.582C198.375 12.9267 197.792 13.099 197.088 13.099C196.524 13.099 196.018 12.9707 195.57 12.714C195.13 12.4573 194.786 12.0943 194.536 11.625C194.287 11.1483 194.162 10.602 194.162 9.986C194.162 9.36267 194.287 8.81633 194.536 8.347C194.786 7.87033 195.138 7.50367 195.592 7.247C196.047 6.99033 196.571 6.862 197.165 6.862C197.73 6.862 198.229 6.98667 198.661 7.236C199.094 7.48533 199.431 7.82633 199.673 8.259C199.915 8.69167 200.036 9.183 200.036 9.733ZM198.991 9.601C198.991 9.21233 198.907 8.875 198.738 8.589C198.57 8.29567 198.339 8.072 198.045 7.918C197.759 7.764 197.44 7.687 197.088 7.687C196.568 7.687 196.131 7.85933 195.779 8.204C195.427 8.54133 195.233 9.007 195.196 9.601H198.991Z" fill="#1A1A1A"/>
<path d="M152.137 22.664V26H150.445V17.624H153.529C154.177 17.624 154.729 17.74 155.185 17.972C155.641 18.196 155.981 18.5 156.205 18.884C156.437 19.26 156.553 19.68 156.553 20.144C156.553 20.552 156.453 20.948 156.253 21.332C156.061 21.708 155.737 22.024 155.281 22.28C154.833 22.536 154.249 22.664 153.529 22.664H152.137ZM153.529 21.368C153.953 21.368 154.277 21.26 154.501 21.044C154.725 20.82 154.837 20.52 154.837 20.144C154.837 19.768 154.725 19.472 154.501 19.256C154.277 19.032 153.953 18.92 153.529 18.92H152.137V21.368H153.529ZM160.444 19.256C160.916 19.256 161.336 19.356 161.704 19.556C162.072 19.756 162.368 20.032 162.592 20.384V19.352H164.272V26H162.592V24.884C162.36 25.26 162.06 25.556 161.692 25.772C161.332 25.988 160.916 26.096 160.444 26.096C159.876 26.096 159.356 25.952 158.884 25.664C158.42 25.368 158.048 24.96 157.768 24.44C157.496 23.92 157.36 23.328 157.36 22.664C157.36 22 157.496 21.412 157.768 20.9C158.048 20.38 158.42 19.976 158.884 19.688C159.356 19.4 159.876 19.256 160.444 19.256ZM160.828 20.72C160.532 20.72 160.248 20.796 159.976 20.948C159.712 21.1 159.496 21.324 159.328 21.62C159.16 21.908 159.076 22.256 159.076 22.664C159.076 23.072 159.16 23.428 159.328 23.732C159.496 24.028 159.712 24.252 159.976 24.404C160.248 24.556 160.532 24.632 160.828 24.632C161.132 24.632 161.416 24.556 161.68 24.404C161.952 24.252 162.172 24.028 162.34 23.732C162.508 23.436 162.592 23.084 162.592 22.676C162.592 22.268 162.508 21.916 162.34 21.62C162.172 21.324 161.952 21.1 161.68 20.948C161.416 20.796 161.132 20.72 160.828 20.72ZM167.146 19.352L168.838 24.08L170.626 19.352H172.39L168.238 29.144H166.474L167.854 25.88L165.25 19.352H167.146ZM181.719 19.256C182.511 19.256 183.147 19.504 183.627 20C184.115 20.496 184.359 21.192 184.359 22.088V26H182.679V22.328C182.679 21.808 182.547 21.412 182.283 21.14C182.019 20.86 181.659 20.72 181.203 20.72C180.747 20.72 180.383 20.86 180.111 21.14C179.847 21.412 179.715 21.808 179.715 22.328V26H178.035V22.328C178.035 21.808 177.903 21.412 177.639 21.14C177.375 20.86 177.015 20.72 176.559 20.72C176.103 20.72 175.739 20.86 175.467 21.14C175.203 21.412 175.071 21.808 175.071 22.328V26H173.379V19.352H175.071V20.348C175.279 19.996 175.559 19.728 175.911 19.544C176.271 19.352 176.679 19.256 177.135 19.256C177.639 19.256 178.087 19.372 178.479 19.604C178.879 19.836 179.187 20.168 179.403 20.6C179.635 20.184 179.951 19.856 180.351 19.616C180.759 19.376 181.215 19.256 181.719 19.256ZM192.249 22.58C192.249 22.812 192.233 23.028 192.201 23.228H187.353C187.393 23.66 187.553 24.008 187.833 24.272C188.113 24.536 188.469 24.668 188.901 24.668C189.237 24.668 189.505 24.604 189.705 24.476C189.905 24.348 190.069 24.172 190.197 23.948H192.021C191.829 24.58 191.457 25.096 190.905 25.496C190.353 25.896 189.685 26.096 188.901 26.096C188.269 26.096 187.705 25.956 187.209 25.676C186.713 25.388 186.325 24.988 186.045 24.476C185.765 23.956 185.625 23.352 185.625 22.664C185.625 21.976 185.765 21.376 186.045 20.864C186.325 20.352 186.713 19.956 187.209 19.676C187.713 19.396 188.285 19.256 188.925 19.256C189.565 19.256 190.133 19.392 190.629 19.664C191.133 19.936 191.529 20.324 191.817 20.828C192.105 21.324 192.249 21.908 192.249 22.58ZM190.497 22.136C190.473 21.696 190.309 21.344 190.005 21.08C189.709 20.816 189.341 20.684 188.901 20.684C188.493 20.684 188.145 20.816 187.857 21.08C187.577 21.344 187.409 21.696 187.353 22.136H190.497ZM197.338 19.256C197.834 19.256 198.274 19.368 198.658 19.592C199.05 19.808 199.358 20.132 199.582 20.564C199.806 20.988 199.918 21.496 199.918 22.088V26H198.238V22.328C198.238 21.808 198.106 21.412 197.842 21.14C197.578 20.86 197.218 20.72 196.762 20.72C196.306 20.72 195.942 20.86 195.67 21.14C195.406 21.412 195.274 21.808 195.274 22.328V26H193.582V19.352H195.274V20.348C195.482 19.996 195.762 19.728 196.114 19.544C196.474 19.352 196.882 19.256 197.338 19.256ZM205.04 24.584V26H203.972C203.292 26 202.768 25.844 202.4 25.532C202.032 25.22 201.848 24.704 201.848 23.984V20.732H201.14V19.352H201.848V17.708H203.54V19.352H205.028V20.732H203.54V23.984C203.54 24.2 203.592 24.356 203.696 24.452C203.8 24.54 203.98 24.584 204.236 24.584H205.04Z" fill="#1A1A1A"/>
<rect x="214.662" y="0.778952" width="43.6765" height="30.4412" rx="4.63235" fill="white" stroke="#D9D9D9" stroke-width="1.32353"/>
<path fill-rule="evenodd" clip-rule="evenodd" d="M236.741 22.3902C235.174 23.7112 233.141 24.5087 230.92 24.5087C225.963 24.5087 221.945 20.5386 221.945 15.6411C221.945 10.7436 225.963 6.77344 230.92 6.77344C233.141 6.77344 235.174 7.57093 236.741 8.89197C238.308 7.57093 240.341 6.77344 242.563 6.77344C247.519 6.77344 251.537 10.7436 251.537 15.6411C251.537 20.5386 247.519 24.5087 242.563 24.5087C240.341 24.5087 238.308 23.7112 236.741 22.3902Z" fill="#ED0006"/>
<path fill-rule="evenodd" clip-rule="evenodd" d="M236.742 22.3902C238.672 20.7637 239.895 18.3436 239.895 15.6411C239.895 12.9386 238.672 10.5185 236.742 8.89197C238.309 7.57093 240.342 6.77344 242.564 6.77344C247.52 6.77344 251.538 10.7436 251.538 15.6411C251.538 20.5386 247.52 24.5087 242.564 24.5087C240.342 24.5087 238.309 23.7112 236.742 22.3902Z" fill="#F9A000"/>
<path fill-rule="evenodd" clip-rule="evenodd" d="M236.739 22.3869C238.668 20.7604 239.892 18.3403 239.892 15.6378C239.892 12.9353 238.668 10.5152 236.739 8.88867C234.809 10.5152 233.586 12.9353 233.586 15.6378C233.586 18.3403 234.809 20.7604 236.739 22.3869Z" fill="#FF5E00"/>
<defs>
<clipPath id="clip0_480_4791">
<rect width="11" height="11" fill="white" transform="translate(150 4)"/>
</clipPath>
</defs>
</svg>
