<svg width="150" height="59" viewBox="0 0 150 59" fill="none" xmlns="http://www.w3.org/2000/svg">
<rect width="150" height="58.4898" fill="white"/>
<g clip-path="url(#clip0_614_3756)">
<path d="M25.0652 28.7289L14.7188 18.3537L27.8828 25.9113L25.0652 28.7289ZM12.0176 17.7441C11.408 18.0633 11 18.6441 11 19.4001V40.0881C11 40.8441 11.408 41.4249 12.0176 41.7441L24.05 29.7417L12.0176 17.7441ZM31.9532 28.3209L29.192 26.7225L26.1116 29.7465L29.192 32.7705L32.0096 31.1721C32.8532 30.5013 32.8532 28.9917 31.9532 28.3209ZM14.7188 41.1393L27.8828 33.5817L25.0652 30.7641L14.7188 41.1393Z" fill="#1A1A1A"/>
</g>
<path d="M47.216 17.227C47.216 18.0117 47.0547 18.69 46.732 19.262C46.4093 19.8267 45.9473 20.2593 45.346 20.56C44.752 20.8533 44.048 21 43.234 21H40.825V13.377H43.234C44.048 13.377 44.752 13.5347 45.346 13.85C45.9473 14.158 46.4093 14.6017 46.732 15.181C47.0547 15.753 47.216 16.435 47.216 17.227ZM43.234 20.23C44.1947 20.23 44.928 19.966 45.434 19.438C45.94 18.91 46.193 18.173 46.193 17.227C46.193 16.281 45.94 15.544 45.434 15.016C44.928 14.488 44.1947 14.224 43.234 14.224H41.826V20.23H43.234ZM51.1352 14.862C51.7072 14.862 52.2242 14.9903 52.6862 15.247C53.1482 15.5037 53.5112 15.8703 53.7752 16.347C54.0465 16.8237 54.1822 17.37 54.1822 17.986C54.1822 18.5947 54.0428 19.1373 53.7642 19.614C53.4855 20.0833 53.1078 20.45 52.6312 20.714C52.1545 20.9707 51.6265 21.099 51.0472 21.099C50.4825 21.099 49.9728 20.9707 49.5182 20.714C49.0708 20.4573 48.7188 20.0943 48.4622 19.625C48.2128 19.1483 48.0882 18.602 48.0882 17.986C48.0882 17.3627 48.2202 16.8163 48.4842 16.347C48.7555 15.8703 49.1222 15.5037 49.5842 15.247C50.0462 14.9903 50.5632 14.862 51.1352 14.862ZM51.1022 15.687C50.7355 15.687 50.4018 15.775 50.1012 15.951C49.8005 16.127 49.5585 16.3873 49.3752 16.732C49.1992 17.0767 49.1112 17.4947 49.1112 17.986C49.1112 18.47 49.1955 18.8843 49.3642 19.229C49.5402 19.5737 49.7748 19.834 50.0682 20.01C50.3615 20.186 50.6878 20.274 51.0472 20.274C51.4138 20.274 51.7548 20.186 52.0702 20.01C52.3928 19.8267 52.6532 19.5627 52.8512 19.218C53.0492 18.8733 53.1482 18.4627 53.1482 17.986C53.1482 17.502 53.0528 17.0877 52.8622 16.743C52.6788 16.391 52.4295 16.127 52.1142 15.951C51.8062 15.775 51.4688 15.687 51.1022 15.687ZM63.3654 14.961L61.4624 21H60.4284L59.0644 16.204L57.7004 21H56.6554L54.7414 14.961H55.7754L57.1724 19.999L58.5914 14.961H59.6254L60.9674 20.01L62.3534 14.961H63.3654ZM67.2882 14.862C67.7208 14.862 68.1132 14.961 68.4652 15.159C68.8245 15.3497 69.1068 15.6393 69.3122 16.028C69.5248 16.4093 69.6312 16.875 69.6312 17.425V21H68.6412V17.59C68.6412 16.9813 68.4945 16.5193 68.2012 16.204C67.9078 15.8887 67.5008 15.731 66.9802 15.731C66.4668 15.731 66.0598 15.8887 65.7592 16.204C65.4658 16.5193 65.3192 16.9813 65.3192 17.59V21H64.3182V14.961H65.3192V15.94C65.5172 15.588 65.7885 15.3203 66.1332 15.137C66.4778 14.9537 66.8628 14.862 67.2882 14.862ZM72.2264 12.86V21H71.2254V12.86H72.2264ZM76.5297 14.862C77.1017 14.862 77.6187 14.9903 78.0807 15.247C78.5427 15.5037 78.9057 15.8703 79.1697 16.347C79.441 16.8237 79.5767 17.37 79.5767 17.986C79.5767 18.5947 79.4374 19.1373 79.1587 19.614C78.88 20.0833 78.5024 20.45 78.0257 20.714C77.549 20.9707 77.021 21.099 76.4417 21.099C75.877 21.099 75.3674 20.9707 74.9127 20.714C74.4654 20.4573 74.1134 20.0943 73.8567 19.625C73.6074 19.1483 73.4827 18.602 73.4827 17.986C73.4827 17.3627 73.6147 16.8163 73.8787 16.347C74.15 15.8703 74.5167 15.5037 74.9787 15.247C75.4407 14.9903 75.9577 14.862 76.5297 14.862ZM76.4967 15.687C76.13 15.687 75.7964 15.775 75.4957 15.951C75.195 16.127 74.953 16.3873 74.7697 16.732C74.5937 17.0767 74.5057 17.4947 74.5057 17.986C74.5057 18.47 74.59 18.8843 74.7587 19.229C74.9347 19.5737 75.1694 19.834 75.4627 20.01C75.756 20.186 76.0824 20.274 76.4417 20.274C76.8084 20.274 77.1494 20.186 77.4647 20.01C77.7874 19.8267 78.0477 19.5627 78.2457 19.218C78.4437 18.8733 78.5427 18.4627 78.5427 17.986C78.5427 17.502 78.4474 17.0877 78.2567 16.743C78.0734 16.391 77.824 16.127 77.5087 15.951C77.2007 15.775 76.8634 15.687 76.4967 15.687ZM83.3149 14.862C83.8282 14.862 84.2756 14.983 84.6569 15.225C85.0456 15.467 85.3389 15.7823 85.5369 16.171V14.961H86.5489V21H85.5369V19.768C85.3389 20.164 85.0456 20.4867 84.6569 20.736C84.2756 20.978 83.8282 21.099 83.3149 21.099C82.7722 21.099 82.2809 20.967 81.8409 20.703C81.4082 20.4317 81.0636 20.0577 80.8069 19.581C80.5576 19.097 80.4329 18.5507 80.4329 17.942C80.4329 17.3333 80.5576 16.798 80.8069 16.336C81.0636 15.8667 81.4082 15.5037 81.8409 15.247C82.2809 14.9903 82.7722 14.862 83.3149 14.862ZM83.4909 15.731C83.1316 15.731 82.7942 15.819 82.4789 15.995C82.1709 16.171 81.9216 16.4277 81.7309 16.765C81.5476 17.095 81.4559 17.4873 81.4559 17.942C81.4559 18.3967 81.5476 18.8 81.7309 19.152C81.9216 19.4967 82.1709 19.7643 82.4789 19.955C82.7942 20.1457 83.1316 20.241 83.4909 20.241C83.8576 20.241 84.1949 20.1493 84.5029 19.966C84.8182 19.7827 85.0676 19.5223 85.2509 19.185C85.4416 18.8403 85.5369 18.4407 85.5369 17.986C85.5369 17.5313 85.4416 17.1353 85.2509 16.798C85.0676 16.4533 84.8182 16.1893 84.5029 16.006C84.1949 15.8227 83.8576 15.731 83.4909 15.731ZM90.684 14.862C91.1974 14.862 91.6447 14.983 92.026 15.225C92.4147 15.467 92.708 15.7823 92.906 16.171V12.86H93.918V21H92.906V19.768C92.708 20.164 92.4147 20.4867 92.026 20.736C91.6447 20.978 91.1974 21.099 90.684 21.099C90.1414 21.099 89.65 20.967 89.21 20.703C88.7774 20.4317 88.4327 20.0577 88.176 19.581C87.9267 19.097 87.802 18.5507 87.802 17.942C87.802 17.3333 87.9267 16.798 88.176 16.336C88.4327 15.8667 88.7774 15.5037 89.21 15.247C89.65 14.9903 90.1414 14.862 90.684 14.862ZM90.86 15.731C90.5007 15.731 90.1634 15.819 89.848 15.995C89.54 16.171 89.2907 16.4277 89.1 16.765C88.9167 17.095 88.825 17.4873 88.825 17.942C88.825 18.3967 88.9167 18.8 89.1 19.152C89.2907 19.4967 89.54 19.7643 89.848 19.955C90.1634 20.1457 90.5007 20.241 90.86 20.241C91.2267 20.241 91.564 20.1493 91.872 19.966C92.1874 19.7827 92.4367 19.5223 92.62 19.185C92.8107 18.8403 92.906 18.4407 92.906 17.986C92.906 17.5313 92.8107 17.1353 92.62 16.798C92.4367 16.4533 92.1874 16.1893 91.872 16.006C91.564 15.8227 91.2267 15.731 90.86 15.731ZM101.516 14.862C102.088 14.862 102.605 14.9903 103.067 15.247C103.529 15.5037 103.892 15.8703 104.156 16.347C104.427 16.8237 104.563 17.37 104.563 17.986C104.563 18.5947 104.424 19.1373 104.145 19.614C103.866 20.0833 103.489 20.45 103.012 20.714C102.535 20.9707 102.007 21.099 101.428 21.099C100.863 21.099 100.354 20.9707 99.899 20.714C99.4517 20.4573 99.0997 20.0943 98.843 19.625C98.5937 19.1483 98.469 18.602 98.469 17.986C98.469 17.3627 98.601 16.8163 98.865 16.347C99.1364 15.8703 99.503 15.5037 99.965 15.247C100.427 14.9903 100.944 14.862 101.516 14.862ZM101.483 15.687C101.116 15.687 100.783 15.775 100.482 15.951C100.181 16.127 99.9394 16.3873 99.756 16.732C99.58 17.0767 99.492 17.4947 99.492 17.986C99.492 18.47 99.5764 18.8843 99.745 19.229C99.921 19.5737 100.156 19.834 100.449 20.01C100.742 20.186 101.069 20.274 101.428 20.274C101.795 20.274 102.136 20.186 102.451 20.01C102.774 19.8267 103.034 19.5627 103.232 19.218C103.43 18.8733 103.529 18.4627 103.529 17.986C103.529 17.502 103.434 17.0877 103.243 16.743C103.06 16.391 102.81 16.127 102.495 15.951C102.187 15.775 101.85 15.687 101.483 15.687ZM108.785 14.862C109.218 14.862 109.61 14.961 109.962 15.159C110.322 15.3497 110.604 15.6393 110.809 16.028C111.022 16.4093 111.128 16.875 111.128 17.425V21H110.138V17.59C110.138 16.9813 109.992 16.5193 109.698 16.204C109.405 15.8887 108.998 15.731 108.477 15.731C107.964 15.731 107.557 15.8887 107.256 16.204C106.963 16.5193 106.816 16.9813 106.816 17.59V21H105.815V14.961H106.816V15.94C107.014 15.588 107.286 15.3203 107.63 15.137C107.975 14.9537 108.36 14.862 108.785 14.862ZM118.825 20.186V21H117.813C117.3 21 116.908 20.8753 116.636 20.626C116.372 20.3767 116.24 19.9843 116.24 19.449V15.775H115.459V14.961H116.24V13.465H117.252V14.961H118.814V15.775H117.252V19.449C117.252 19.7203 117.307 19.911 117.417 20.021C117.527 20.131 117.722 20.186 118 20.186H118.825ZM122.9 14.862C123.333 14.862 123.725 14.961 124.077 15.159C124.437 15.3497 124.719 15.6393 124.924 16.028C125.137 16.4093 125.243 16.875 125.243 17.425V21H124.253V17.59C124.253 16.9813 124.107 16.5193 123.813 16.204C123.52 15.8887 123.113 15.731 122.592 15.731C122.079 15.731 121.672 15.8887 121.371 16.204C121.078 16.5193 120.931 16.9813 120.931 17.59V21H119.93V12.86H120.931V15.94C121.129 15.588 121.401 15.3203 121.745 15.137C122.09 14.9537 122.475 14.862 122.9 14.862ZM132.316 17.733C132.316 17.9457 132.301 18.1437 132.272 18.327H127.465C127.494 18.9283 127.681 19.405 128.026 19.757C128.378 20.1017 128.825 20.274 129.368 20.274C129.778 20.274 130.123 20.1823 130.402 19.999C130.688 19.8157 130.897 19.5737 131.029 19.273H132.107C131.916 19.801 131.586 20.2373 131.117 20.582C130.655 20.9267 130.072 21.099 129.368 21.099C128.803 21.099 128.297 20.9707 127.85 20.714C127.41 20.4573 127.065 20.0943 126.816 19.625C126.566 19.1483 126.442 18.602 126.442 17.986C126.442 17.3627 126.566 16.8163 126.816 16.347C127.065 15.8703 127.417 15.5037 127.872 15.247C128.326 14.9903 128.851 14.862 129.445 14.862C130.009 14.862 130.508 14.9867 130.941 15.236C131.373 15.4853 131.711 15.8263 131.953 16.259C132.195 16.6917 132.316 17.183 132.316 17.733ZM131.271 17.601C131.271 17.2123 131.186 16.875 131.018 16.589C130.849 16.2957 130.618 16.072 130.325 15.918C130.039 15.764 129.72 15.687 129.368 15.687C128.847 15.687 128.411 15.8593 128.059 16.204C127.707 16.5413 127.512 17.007 127.476 17.601H131.271Z" fill="#4D4D4D"/>
<path d="M46.272 30.736C47.456 30.736 48.5067 31.0293 49.424 31.616C50.352 32.192 51.024 33.0133 51.44 34.08H49.248C48.96 33.5253 48.56 33.1093 48.048 32.832C47.536 32.544 46.944 32.4 46.272 32.4C45.536 32.4 44.88 32.5653 44.304 32.896C43.728 33.2267 43.2747 33.696 42.944 34.304C42.624 34.912 42.464 35.616 42.464 36.416C42.464 37.216 42.624 37.9253 42.944 38.544C43.2747 39.152 43.728 39.6213 44.304 39.952C44.88 40.2827 45.536 40.448 46.272 40.448C47.264 40.448 48.0693 40.1707 48.688 39.616C49.3173 39.0507 49.696 38.288 49.824 37.328H45.648V35.904H51.776V37.328C51.6587 38.192 51.3493 38.9867 50.848 39.712C50.3573 40.4373 49.712 41.0187 48.912 41.456C48.1227 41.8827 47.2427 42.096 46.272 42.096C45.2267 42.096 44.272 41.856 43.408 41.376C42.544 40.8853 41.856 40.208 41.344 39.344C40.8427 38.48 40.592 37.504 40.592 36.416C40.592 35.328 40.8427 34.352 41.344 33.488C41.856 32.624 42.544 31.952 43.408 31.472C44.2827 30.9813 45.2373 30.736 46.272 30.736ZM57.479 33.04C58.3217 33.04 59.0843 33.2267 59.767 33.6C60.4497 33.9733 60.9883 34.5067 61.383 35.2C61.7777 35.8933 61.975 36.688 61.975 37.584C61.975 38.48 61.7723 39.2747 61.367 39.968C60.9617 40.6613 60.407 41.2 59.703 41.584C59.0097 41.9573 58.2417 42.144 57.399 42.144C56.567 42.144 55.815 41.9573 55.143 41.584C54.471 41.2 53.943 40.6667 53.559 39.984C53.175 39.2907 52.983 38.4907 52.983 37.584C52.983 36.688 53.1803 35.8933 53.575 35.2C53.9697 34.5067 54.5083 33.9733 55.191 33.6C55.8737 33.2267 56.6363 33.04 57.479 33.04ZM57.447 34.576C56.9777 34.576 56.5457 34.6933 56.151 34.928C55.7563 35.152 55.4363 35.4933 55.191 35.952C54.9563 36.4 54.839 36.944 54.839 37.584C54.839 38.224 54.951 38.7733 55.175 39.232C55.4097 39.6907 55.719 40.0373 56.103 40.272C56.4977 40.496 56.9297 40.608 57.399 40.608C57.8683 40.608 58.3057 40.4907 58.711 40.256C59.127 40.0213 59.463 39.68 59.719 39.232C59.975 38.7733 60.103 38.224 60.103 37.584C60.103 36.944 59.9803 36.4 59.735 35.952C59.4897 35.4933 59.1643 35.152 58.759 34.928C58.3537 34.6933 57.9163 34.576 57.447 34.576ZM67.6821 33.04C68.5248 33.04 69.2875 33.2267 69.9701 33.6C70.6528 33.9733 71.1915 34.5067 71.5861 35.2C71.9808 35.8933 72.1781 36.688 72.1781 37.584C72.1781 38.48 71.9755 39.2747 71.5701 39.968C71.1648 40.6613 70.6101 41.2 69.9061 41.584C69.2128 41.9573 68.4448 42.144 67.6021 42.144C66.7701 42.144 66.0181 41.9573 65.3461 41.584C64.6741 41.2 64.1461 40.6667 63.7621 39.984C63.3781 39.2907 63.1861 38.4907 63.1861 37.584C63.1861 36.688 63.3835 35.8933 63.7781 35.2C64.1728 34.5067 64.7115 33.9733 65.3941 33.6C66.0768 33.2267 66.8395 33.04 67.6821 33.04ZM67.6501 34.576C67.1808 34.576 66.7488 34.6933 66.3541 34.928C65.9595 35.152 65.6395 35.4933 65.3941 35.952C65.1595 36.4 65.0421 36.944 65.0421 37.584C65.0421 38.224 65.1541 38.7733 65.3781 39.232C65.6128 39.6907 65.9221 40.0373 66.3061 40.272C66.7008 40.496 67.1328 40.608 67.6021 40.608C68.0715 40.608 68.5088 40.4907 68.9141 40.256C69.3301 40.0213 69.6661 39.68 69.9221 39.232C70.1781 38.7733 70.3061 38.224 70.3061 37.584C70.3061 36.944 70.1835 36.4 69.9381 35.952C69.6928 35.4933 69.3675 35.152 68.9621 34.928C68.5568 34.6933 68.1195 34.576 67.6501 34.576ZM77.5333 33.04C78.2266 33.04 78.8346 33.2 79.3573 33.52C79.8906 33.8293 80.3013 34.24 80.5893 34.752V33.184H82.4293V42.144C82.4293 42.9547 82.2586 43.6747 81.9173 44.304C81.5759 44.944 81.0799 45.4453 80.4293 45.808C79.7893 46.1707 79.0213 46.352 78.1253 46.352C76.9306 46.352 75.9386 46.0693 75.1493 45.504C74.3599 44.9493 73.9119 44.192 73.8053 43.232H75.6133C75.7519 43.6907 76.0453 44.0587 76.4933 44.336C76.9519 44.624 77.4959 44.768 78.1253 44.768C78.8613 44.768 79.4533 44.544 79.9013 44.096C80.3599 43.648 80.5893 42.9973 80.5893 42.144V40.352C80.2906 40.896 79.8799 41.3333 79.3573 41.664C78.8346 41.984 78.2266 42.144 77.5333 42.144C76.7653 42.144 76.0613 41.952 75.4213 41.568C74.7919 41.1733 74.2906 40.6293 73.9173 39.936C73.5546 39.232 73.3733 38.4373 73.3733 37.552C73.3733 36.6667 73.5546 35.8827 73.9173 35.2C74.2906 34.5173 74.7919 33.9893 75.4213 33.616C76.0613 33.232 76.7653 33.04 77.5333 33.04ZM77.9173 34.624C77.4479 34.624 77.0106 34.7413 76.6053 34.976C76.1999 35.2 75.8693 35.536 75.6133 35.984C75.3679 36.4213 75.2453 36.944 75.2453 37.552C75.2453 38.16 75.3679 38.6933 75.6133 39.152C75.8693 39.6107 76.1999 39.9627 76.6053 40.208C77.0213 40.4427 77.4586 40.56 77.9173 40.56C78.3866 40.56 78.8239 40.4427 79.2293 40.208C79.6346 39.9733 79.9599 39.632 80.2053 39.184C80.4613 38.7253 80.5893 38.192 80.5893 37.584C80.5893 36.976 80.4613 36.448 80.2053 36C79.9599 35.552 79.6346 35.2107 79.2293 34.976C78.8239 34.7413 78.3866 34.624 77.9173 34.624ZM86.649 30.16V42H84.825V30.16H86.649ZM97.1238 37.344C97.1238 37.6533 97.1024 37.9413 97.0598 38.208H90.3078C90.3504 38.944 90.5958 39.5307 91.0438 39.968C91.5024 40.3947 92.0731 40.608 92.7558 40.608C93.7478 40.608 94.4464 40.1973 94.8518 39.376H96.8198C96.5531 40.1867 96.0678 40.8533 95.3638 41.376C94.6598 41.888 93.7904 42.144 92.7558 42.144C91.9131 42.144 91.1664 41.9573 90.5158 41.584C89.8651 41.2 89.3531 40.6667 88.9798 39.984C88.6171 39.2907 88.4358 38.4907 88.4358 37.584C88.4358 36.6773 88.6171 35.8827 88.9798 35.2C89.3531 34.5067 89.8704 33.9733 90.5318 33.6C91.2038 33.2267 91.9718 33.04 92.8358 33.04C93.6678 33.04 94.4091 33.2213 95.0598 33.584C95.7104 33.9467 96.2171 34.4533 96.5798 35.104C96.9424 35.7547 97.1238 36.5013 97.1238 37.344ZM95.2198 36.96C95.2091 36.2347 94.9691 35.6587 94.4998 35.232C94.0304 34.7947 93.4491 34.576 92.7558 34.576C92.1051 34.576 91.5504 34.7947 91.0918 35.232C90.6438 35.6587 90.3878 36.2347 90.3238 36.96H95.2198ZM108.612 33.04C109.38 33.04 110.078 33.232 110.708 33.616C111.348 33.9893 111.849 34.5173 112.212 35.2C112.574 35.8827 112.756 36.6667 112.756 37.552C112.756 38.4373 112.574 39.232 112.212 39.936C111.849 40.6293 111.348 41.1733 110.708 41.568C110.078 41.952 109.38 42.144 108.612 42.144C107.918 42.144 107.31 41.984 106.788 41.664C106.265 41.3333 105.849 40.896 105.54 40.352V46.192H103.716V33.184H105.54V34.752C105.838 34.24 106.249 33.8293 106.772 33.52C107.305 33.2 107.918 33.04 108.612 33.04ZM108.212 34.624C107.753 34.624 107.316 34.7413 106.9 34.976C106.494 35.2107 106.164 35.552 105.908 36C105.662 36.448 105.54 36.976 105.54 37.584C105.54 38.192 105.662 38.7253 105.908 39.184C106.164 39.632 106.494 39.9733 106.9 40.208C107.316 40.4427 107.753 40.56 108.212 40.56C108.681 40.56 109.118 40.4427 109.524 40.208C109.94 39.9627 110.27 39.6107 110.516 39.152C110.772 38.6933 110.9 38.16 110.9 37.552C110.9 36.944 110.772 36.4213 110.516 35.984C110.27 35.536 109.94 35.2 109.524 34.976C109.118 34.7413 108.681 34.624 108.212 34.624ZM116.383 30.16V42H114.559V30.16H116.383ZM122.33 33.04C123.023 33.04 123.631 33.2 124.154 33.52C124.687 33.8293 125.098 34.24 125.386 34.752V33.184H127.226V42H125.386V40.352C125.087 40.896 124.677 41.3333 124.154 41.664C123.631 41.984 123.023 42.144 122.33 42.144C121.562 42.144 120.858 41.952 120.218 41.568C119.589 41.1733 119.087 40.6293 118.714 39.936C118.351 39.232 118.17 38.4373 118.17 37.552C118.17 36.6667 118.351 35.8827 118.714 35.2C119.087 34.5173 119.589 33.9893 120.218 33.616C120.858 33.232 121.562 33.04 122.33 33.04ZM122.714 34.624C122.245 34.624 121.807 34.7413 121.402 34.976C120.997 35.2 120.666 35.536 120.41 35.984C120.165 36.4213 120.042 36.944 120.042 37.552C120.042 38.16 120.165 38.6933 120.41 39.152C120.666 39.6107 120.997 39.9627 121.402 40.208C121.818 40.4427 122.255 40.56 122.714 40.56C123.183 40.56 123.621 40.4427 124.026 40.208C124.431 39.9733 124.757 39.632 125.002 39.184C125.258 38.7253 125.386 38.192 125.386 37.584C125.386 36.976 125.258 36.448 125.002 36C124.757 35.552 124.431 35.2107 124.026 34.976C123.621 34.7413 123.183 34.624 122.714 34.624ZM130.614 33.184L133.094 39.904L135.67 33.184H137.558L132.15 46.144H130.262L132.054 41.856L128.582 33.184H130.614Z" fill="#1A1A1A"/>
<defs>
<clipPath id="clip0_614_3756">
<rect width="24" height="24" fill="white" transform="translate(10 17.2441)"/>
</clipPath>
</defs>
</svg>
