<svg width="84" height="32" viewBox="0 0 84 32" fill="none" xmlns="http://www.w3.org/2000/svg">
<g clip-path="url(#clip0_480_6160)">
<path d="M73.5412 18.3883C73.2173 18.3883 72.9744 18.3073 72.7855 18.1184C72.6235 17.9564 72.5156 17.6865 72.5156 17.3626V7.40318C72.5156 7.0793 72.5965 6.8094 72.7855 6.64745C72.9744 6.48551 73.2173 6.40454 73.5412 6.40454H75.3496C75.7544 6.40454 76.1053 6.43153 76.4022 6.45852C76.6991 6.5125 76.969 6.59347 77.1579 6.75541C77.3738 6.91736 77.5088 7.13328 77.6168 7.45717C77.7247 7.75406 77.7787 8.18591 77.7787 8.69872V16.0941C77.7787 16.7689 77.6977 17.2547 77.5088 17.5786C77.3199 17.9025 77.05 18.1184 76.6991 18.2263C76.3482 18.3343 75.8894 18.3883 75.3496 18.3613L73.5412 18.3883ZM67.7383 0.601601C67.4144 0.628592 67.1445 0.709563 66.9825 0.871506C66.8206 1.03345 66.7396 1.30335 66.7396 1.62724V23.1656C66.7396 23.4895 66.8206 23.7324 67.0095 23.9213C67.1715 24.0833 67.4414 24.1912 67.7653 24.1912H75.2686C76.834 24.1912 78.1836 24.0293 79.2632 23.7054C80.3428 23.3815 81.2065 22.8687 81.8543 22.2209C82.502 21.5731 82.9879 20.7095 83.2578 19.6838C83.5546 18.6582 83.6896 17.4706 83.6896 16.0941V8.69872C83.6896 7.32221 83.5546 6.13463 83.2578 5.109C82.9609 4.08336 82.502 3.24666 81.8543 2.59889C81.2065 1.92413 80.3428 1.4383 79.2632 1.11442C78.1836 0.790534 76.861 0.628592 75.2686 0.628592L67.7383 0.601601ZM57.9138 14.8255C57.9138 15.4733 57.8868 16.0671 57.8598 16.5799C57.8058 17.0927 57.6978 17.5246 57.5359 17.9025C57.374 18.2803 57.104 18.5502 56.7262 18.7392C56.3753 18.9281 55.8895 19.0361 55.2687 19.0361C54.6479 19.0361 54.1621 18.9281 53.8112 18.7392C53.4334 18.5502 53.1904 18.2803 53.0015 17.9025C52.8396 17.5516 52.7316 17.0927 52.6776 16.5799C52.6236 16.0671 52.5967 15.4733 52.6236 14.8255V9.96727C52.6236 9.3195 52.6506 8.72571 52.6776 8.2129C52.7316 7.70008 52.8396 7.26823 53.0015 6.89037C53.1635 6.5125 53.4334 6.2426 53.8112 6.05366C54.1621 5.86473 54.6479 5.75677 55.2687 5.75677C55.8895 5.75677 56.3753 5.86473 56.7262 6.05366C57.104 6.2426 57.347 6.5125 57.5359 6.89037C57.6978 7.24124 57.8058 7.70008 57.8598 8.2129C57.9138 8.72571 57.9138 9.3195 57.9138 9.96727V14.8255ZM63.6897 8.18591C63.6897 7.80804 63.6627 7.3492 63.6087 6.8094C63.5548 6.26959 63.4468 5.70279 63.2579 5.08201C63.0689 4.46123 62.799 3.86744 62.4482 3.27365C62.0703 2.67986 61.5845 2.14005 60.9637 1.65423C60.3429 1.1684 59.5602 0.763544 58.6155 0.466649C57.6708 0.169755 56.5373 0.0348029 55.2147 0.0078125C53.8922 0.0078125 52.7586 0.169755 51.8139 0.466649C50.8693 0.763544 50.0865 1.1684 49.4658 1.65423C48.845 2.14005 48.3592 2.67986 47.9813 3.27365C47.6034 3.86744 47.3335 4.48822 47.1716 5.08201C46.9827 5.70279 46.8747 6.26959 46.8207 6.8094C46.7667 7.3492 46.7397 7.80804 46.7397 8.18591V16.6069C46.7397 16.9848 46.7667 17.4436 46.8207 17.9834C46.8747 18.5232 46.9827 19.09 47.1716 19.7108C47.3335 20.3316 47.6304 20.9254 47.9813 21.5192C48.3592 22.113 48.845 22.6528 49.4658 23.1656C50.0865 23.6514 50.8693 24.0563 51.8139 24.3262C52.7586 24.6231 53.8922 24.785 55.2147 24.785C56.5373 24.785 57.6708 24.6231 58.6155 24.3262C59.5602 24.0293 60.3429 23.6514 60.9637 23.1656C61.5845 22.6798 62.0703 22.1399 62.4482 21.5192C62.826 20.9254 63.0959 20.3046 63.2579 19.7108C63.4198 19.09 63.5548 18.5232 63.6087 17.9834C63.6627 17.4436 63.6897 16.9848 63.6897 16.6069V8.18591ZM38.2917 14.8255C38.2917 15.4733 38.2647 16.0671 38.2378 16.5799C38.1838 17.0927 38.0758 17.5246 37.9139 17.9025C37.7519 18.2803 37.482 18.5502 37.1042 18.7392C36.7533 18.9281 36.2675 19.0361 35.6467 19.0361C35.0259 19.0361 34.5401 18.9281 34.1892 18.7392C33.8113 18.5502 33.5684 18.2803 33.3795 17.9025C33.2175 17.5516 33.1096 17.0927 33.0556 16.5799C33.0016 16.0671 32.9746 15.4733 33.0016 14.8255V9.96727C33.0016 9.3195 33.0286 8.72571 33.0556 8.2129C33.1096 7.70008 33.2175 7.26823 33.3795 6.89037C33.5414 6.5125 33.8113 6.2426 34.1892 6.05366C34.5401 5.86473 35.0259 5.75677 35.6467 5.75677C36.2675 5.75677 36.7533 5.86473 37.1042 6.05366C37.482 6.2426 37.7249 6.5125 37.9139 6.89037C38.0758 7.24124 38.1838 7.70008 38.2378 8.2129C38.2917 8.72571 38.2917 9.3195 38.2917 9.96727V14.8255ZM44.0947 8.18591C44.0947 7.80804 44.0677 7.3492 44.0137 6.8094C43.9597 6.26959 43.8518 5.70279 43.6628 5.08201C43.4739 4.46123 43.204 3.86744 42.8531 3.27365C42.4753 2.67986 41.9894 2.14005 41.3686 1.65423C40.7479 1.1684 39.9651 0.763544 39.0205 0.466649C38.0758 0.169755 36.9422 0.0348029 35.6197 0.0078125C34.2972 0.0078125 33.1636 0.169755 32.2189 0.466649C31.2742 0.763544 30.4915 1.1684 29.8707 1.65423C29.25 2.14005 28.7641 2.67986 28.3863 3.27365C28.0084 3.86744 27.7385 4.48822 27.5765 5.08201C27.3876 5.70279 27.2796 6.26959 27.2257 6.8094C27.1717 7.3492 27.1447 7.80804 27.1447 8.18591V16.6069C27.1447 16.9848 27.1717 17.4436 27.2257 17.9834C27.2796 18.5232 27.3876 19.09 27.5765 19.7108C27.7385 20.3316 28.0354 20.9254 28.3863 21.5192C28.7641 22.113 29.25 22.6528 29.8707 23.1656C30.4915 23.6514 31.2742 24.0563 32.2189 24.3262C33.1636 24.6231 34.2972 24.785 35.6197 24.785C36.9422 24.785 38.0758 24.6231 39.0205 24.3262C39.9651 24.0293 40.7479 23.6514 41.3686 23.1656C41.9894 22.6798 42.4753 22.1399 42.8531 21.5192C43.231 20.9254 43.5009 20.3046 43.6628 19.7108C43.8248 19.09 43.9597 18.5232 44.0137 17.9834C44.0677 17.4436 44.0947 16.9848 44.0947 16.6069V8.18591ZM24.1758 0.601601C24.8505 0.601601 25.1744 0.952477 25.1744 1.60025V5.3789C25.1744 5.70279 25.0934 5.9457 24.9315 6.13464C24.7695 6.32357 24.4996 6.40454 24.1758 6.40454H15.3769C15.053 6.40454 14.8101 6.48551 14.6212 6.64745C14.4322 6.8094 14.3512 7.0793 14.3512 7.40318V23.1926C14.3512 23.5165 14.2703 23.7594 14.1083 23.9483C13.9464 24.1102 13.6765 24.2182 13.3526 24.2182H9.38501C9.06113 24.2182 8.81821 24.1372 8.62928 23.9483C8.46734 23.7594 8.35938 23.5165 8.35938 23.1926V1.62724C8.35938 1.30335 8.44035 1.03345 8.62928 0.871506C8.81821 0.709563 9.06113 0.628592 9.38501 0.628592L24.1758 0.601601Z" fill="#B3B3B3"/>
<path d="M82.1481 29.454C82.1481 29.427 82.1211 29.427 82.1211 29.4C82.1211 29.373 82.1211 29.373 82.1481 29.346L83.4976 27.5107C83.5516 27.4297 83.5516 27.3757 83.5246 27.3487C83.4976 27.3217 83.4437 27.2678 83.3627 27.2678H82.391C82.337 27.2678 82.2831 27.2678 82.2561 27.2948C82.2291 27.3217 82.1751 27.3487 82.1481 27.4027L81.0955 28.8332C81.0685 28.8602 81.0685 28.8602 81.0415 28.8602C81.0145 28.8602 81.0145 28.8332 81.0145 28.8062V27.4837C81.0145 27.3487 80.9605 27.2948 80.8256 27.2948H80.0699C80.0159 27.2948 79.9619 27.3217 79.9349 27.3487C79.9079 27.3757 79.8809 27.4297 79.8809 27.5107V31.7752C79.8809 31.8291 79.9079 31.8831 79.9349 31.9101C79.9619 31.9371 80.0159 31.9641 80.0699 31.9641H80.8256C80.8796 31.9641 80.9335 31.9371 80.9875 31.9101C81.0415 31.8831 81.0415 31.8291 81.0415 31.7752V31.0464V30.9924C81.0415 30.9654 81.0415 30.9654 81.0685 30.9385L81.3384 30.5606C81.3384 30.5336 81.3654 30.5336 81.3924 30.5336C81.4194 30.5336 81.4194 30.5336 81.4464 30.5606L82.2831 31.8291C82.3101 31.8831 82.337 31.9101 82.391 31.9371C82.418 31.9641 82.472 31.9641 82.526 31.9641H83.5246C83.6056 31.9641 83.6596 31.9371 83.6866 31.8831C83.7136 31.8291 83.7136 31.7752 83.6596 31.7212L82.1481 29.454ZM76.1023 27.2678C76.0483 27.2678 75.9943 27.2948 75.9673 27.3217C75.9403 27.3487 75.9133 27.4027 75.9133 27.4837V30.4526C75.9133 30.5336 75.9133 30.6146 75.9403 30.7225C75.9403 30.8305 75.9673 30.9385 76.0213 31.0734C76.0483 31.1814 76.1023 31.3163 76.1832 31.4243C76.2642 31.5322 76.3452 31.6402 76.4801 31.7482C76.6151 31.8561 76.75 31.9101 76.939 31.9911C77.1279 32.0451 77.3438 32.0721 77.6137 32.0721C77.8836 32.0721 78.0996 32.0451 78.2885 31.9911C78.4774 31.9371 78.6394 31.8561 78.7473 31.7482C78.8823 31.6402 78.9633 31.5322 79.0442 31.4243C79.1252 31.3163 79.1792 31.1814 79.2062 31.0734C79.2332 30.9654 79.2601 30.8305 79.2601 30.7225C79.2601 30.6146 79.2871 30.5336 79.2871 30.4526V27.4837C79.2871 27.3487 79.2331 27.2948 79.0982 27.2948H78.3425C78.2885 27.2948 78.2345 27.3217 78.2075 27.3487C78.1805 27.3757 78.1535 27.4297 78.1535 27.5107V30.4796C78.1535 30.5876 78.1265 30.6686 78.0996 30.7495C78.0726 30.8305 78.0186 30.8845 77.9376 30.9115C77.8566 30.9385 77.7757 30.9654 77.6407 30.9654C77.5058 30.9654 77.4248 30.9385 77.3438 30.9115C77.2629 30.8845 77.2089 30.8305 77.1819 30.7495C77.1549 30.6686 77.1279 30.5876 77.1279 30.4796C77.1279 30.3717 77.1009 30.2637 77.1279 30.1287V27.5107C77.1279 27.3757 77.0739 27.3217 76.939 27.3217L76.1023 27.2678ZM75.2386 30.7765C75.3735 30.7765 75.4275 30.8305 75.4275 30.9654V31.7212C75.4275 31.7752 75.4005 31.8291 75.3735 31.8561C75.3465 31.8831 75.2926 31.9101 75.2116 31.9101H74.4559C74.4019 31.9101 74.3479 31.8831 74.3209 31.8561C74.2939 31.8291 74.2669 31.7752 74.2669 31.7212V30.9654C74.2669 30.9115 74.2939 30.8575 74.3209 30.8035C74.3479 30.7765 74.4019 30.7495 74.4559 30.7495L75.2386 30.7765ZM72.6205 30.0748V30.4256C72.6205 30.5336 72.5935 30.6146 72.5665 30.6955C72.5395 30.7765 72.4856 30.8305 72.4046 30.8575C72.3236 30.8845 72.2426 30.9115 72.1077 30.9115C71.9727 30.9115 71.8918 30.8845 71.8108 30.8575C71.7298 30.8305 71.6759 30.7765 71.6489 30.6955C71.6219 30.6146 71.5949 30.5336 71.5949 30.4256C71.5949 30.3177 71.5679 30.2097 71.5949 30.0748V29.1301V28.7792C71.5949 28.6713 71.6219 28.5903 71.6489 28.5093C71.6759 28.4284 71.7298 28.3744 71.8108 28.3474C71.8918 28.3204 71.9727 28.2934 72.1077 28.2934C72.2426 28.2934 72.3236 28.3204 72.4046 28.3474C72.4856 28.3744 72.5395 28.4284 72.5665 28.5093C72.5935 28.5903 72.6205 28.6713 72.6205 28.7792V30.0748ZM73.7811 28.7522C73.7811 28.6713 73.7811 28.5903 73.7541 28.4823C73.7541 28.3744 73.7271 28.2664 73.7001 28.1315C73.6731 28.0235 73.6192 27.8885 73.5382 27.7806C73.4572 27.6726 73.3762 27.5647 73.2413 27.4567C73.1063 27.3487 72.9714 27.2948 72.7825 27.2138C72.5935 27.1598 72.3776 27.1328 72.1077 27.1328C71.8378 27.1328 71.6219 27.1598 71.4329 27.2138C71.244 27.2678 71.0821 27.3487 70.9741 27.4567C70.8391 27.5647 70.7582 27.6726 70.6772 27.7806C70.5962 27.8885 70.5423 28.0235 70.5153 28.1315C70.4883 28.2394 70.4613 28.3744 70.4343 28.4823C70.4343 28.5903 70.4073 28.6713 70.4073 28.7522V30.4256C70.4073 30.5066 70.4073 30.5876 70.4343 30.6955C70.4343 30.8035 70.4613 30.9115 70.5153 31.0464C70.5423 31.1544 70.5962 31.2893 70.6772 31.3973C70.7582 31.5053 70.8391 31.6132 70.9741 31.7212C71.1091 31.8291 71.244 31.8831 71.4329 31.9641C71.6219 32.0181 71.8378 32.0451 72.1077 32.0451C72.3776 32.0451 72.5935 32.0181 72.7825 31.9641C72.9714 31.9101 73.1333 31.8291 73.2413 31.7212C73.3762 31.6132 73.4572 31.5053 73.5382 31.3973C73.6192 31.2893 73.6731 31.1544 73.7001 31.0464C73.7271 30.9385 73.7541 30.8035 73.7541 30.6955C73.7541 30.5876 73.7811 30.5066 73.7811 30.4256V28.7522ZM66.7096 30.4256C66.7096 30.5066 66.7096 30.5876 66.7366 30.6955C66.7366 30.8035 66.7636 30.9115 66.8176 31.0464C66.8446 31.1544 66.8986 31.2893 66.9795 31.3973C67.0605 31.5053 67.1415 31.6132 67.2764 31.7212C67.4114 31.8291 67.5463 31.8831 67.7353 31.9641C67.9242 32.0181 68.1401 32.0451 68.41 32.0451C68.6529 32.0451 68.8419 32.0181 69.0308 31.9641C69.1927 31.9101 69.3547 31.8561 69.4626 31.7752C69.5706 31.6942 69.6786 31.6132 69.7595 31.5053C69.8405 31.3973 69.8945 31.2893 69.9485 31.1814C70.0024 31.0734 70.0294 30.9654 70.0294 30.8575C70.0564 30.7495 70.0564 30.6686 70.0564 30.5606C70.0564 30.5066 70.0564 30.4796 70.0294 30.4256C70.0024 30.3986 69.9755 30.3717 69.9215 30.3717L69.1657 30.2097C69.1118 30.1827 69.0308 30.2097 69.0038 30.2367C68.9498 30.2637 68.9228 30.3177 68.9228 30.3986C68.9228 30.5066 68.8958 30.5876 68.8419 30.6686C68.8149 30.7495 68.7609 30.8035 68.6799 30.8305C68.5989 30.8575 68.518 30.8845 68.383 30.8845C68.2481 30.8845 68.1671 30.8575 68.0861 30.8305C68.0052 30.8035 67.9512 30.7495 67.9242 30.6686C67.8972 30.5876 67.8702 30.5066 67.8702 30.3986C67.8702 30.2907 67.8432 30.1827 67.8702 30.0478V29.1031V28.7522C67.8702 28.6443 67.8972 28.5633 67.9242 28.4823C67.9512 28.4014 68.0052 28.3474 68.0861 28.3204C68.1671 28.2934 68.2481 28.2664 68.383 28.2664C68.491 28.2664 68.5989 28.2934 68.6799 28.3204C68.7609 28.3474 68.8149 28.4014 68.8419 28.4823C68.8688 28.5633 68.8958 28.6443 68.8958 28.7252C68.8958 28.8062 68.9228 28.8602 68.9768 28.8872C69.0308 28.9142 69.0848 28.9412 69.1657 28.9412L69.8945 28.7792C69.9485 28.7792 69.9755 28.7522 70.0024 28.7252C70.0294 28.6983 70.0294 28.6443 70.0294 28.6173C70.0294 28.5363 70.0024 28.4284 70.0024 28.3204L69.9215 27.9965C69.8675 27.8885 69.8135 27.7806 69.7325 27.6726C69.6516 27.5647 69.5436 27.4837 69.4356 27.4027C69.3007 27.3217 69.1657 27.2678 69.0038 27.2138C68.8419 27.1598 68.6259 27.1328 68.383 27.1328C68.1131 27.1328 67.8972 27.1598 67.7083 27.2138C67.5193 27.2678 67.3574 27.3487 67.2494 27.4567C67.1145 27.5647 67.0335 27.6726 66.9525 27.7806C66.8716 27.8885 66.8176 28.0235 66.7906 28.1315C66.7636 28.2394 66.7366 28.3744 66.7096 28.4823C66.7096 28.5903 66.6826 28.6713 66.6826 28.7522V30.4256H66.7096ZM66.0888 30.7765C66.2238 30.7765 66.2778 30.8305 66.2778 30.9654V31.7212C66.2778 31.7752 66.2508 31.8291 66.2238 31.8561C66.1968 31.8831 66.1428 31.9101 66.0619 31.9101H65.3061C65.2521 31.9101 65.1982 31.8831 65.1712 31.8561C65.1442 31.8291 65.1172 31.7752 65.1172 31.7212V30.9654C65.1172 30.9115 65.1442 30.8575 65.1712 30.8035C65.1982 30.7765 65.2521 30.7495 65.3061 30.7495L66.0888 30.7765Z" fill="#B3B3B3"/>
<path d="M16.676 13.4217C14.1659 13.2058 1.91222 15.2031 0.994541 13.0438C-0.543912 9.4541 12.3305 11.4784 14.0579 11.5324C14.9216 11.5594 16.0012 11.7213 16.622 11.5594C17.0538 11.4244 17.3507 10.7227 17.8366 10.4528C18.9162 9.80498 20.6706 10.1559 22.182 10.2908C23.2076 10.3718 24.2063 10.4797 25.2859 10.5607C23.7475 10.7766 22.101 10.9926 20.4816 11.2085C20.2927 11.2355 19.9958 11.1545 19.8608 11.3704C21.5073 11.6403 23.3696 11.6943 25.151 11.8293C23.3966 12.0992 21.4263 12.1532 19.6989 12.477C19.8069 12.666 20.1307 12.612 20.3197 12.639C21.8581 12.7469 23.5585 12.8819 25.1779 12.9629C23.5045 13.2328 21.5612 13.2868 19.8878 13.6106C19.9418 13.8805 20.2927 13.7996 20.4546 13.7996C21.9931 13.9885 23.7205 14.2044 25.3129 14.3394C23.5585 14.4743 21.3993 14.8792 19.5909 14.9871C18.1874 15.0681 17.3507 14.2584 16.676 13.4217Z" fill="#B3B3B3"/>
<path d="M12.3272 13.6377C14.2705 13.4758 15.9169 13.3408 16.6727 13.3948C17.0236 13.8266 17.3744 14.2315 17.8603 14.5284C18.3191 14.8253 18.8589 15.0142 19.5606 14.9602C20.5593 14.9063 21.6659 14.7443 22.7455 14.6094C23.5282 14.5014 24.284 14.3934 24.9857 14.3395C24.284 14.2855 23.5822 14.2045 22.8535 14.1235C22.0168 14.0426 21.2071 13.9346 20.4513 13.8266H20.3164C20.1274 13.8266 19.8845 13.8266 19.8575 13.6107V13.5837H19.8845C20.8022 13.3948 21.8278 13.2868 22.8535 13.2059C23.5552 13.1519 24.257 13.0709 24.9047 12.9899C23.6902 12.909 22.4216 12.828 21.2341 12.747C20.9372 12.72 20.6403 12.693 20.3434 12.693H20.2084C20.0195 12.693 19.8036 12.693 19.6956 12.5311L19.6686 12.5041H19.6956C20.6673 12.3152 21.7199 12.2072 22.7725 12.1262C23.4743 12.0723 24.203 11.9913 24.8778 11.9103C24.5269 11.8833 24.149 11.8563 23.7981 11.8294C22.4486 11.7484 21.0721 11.6674 19.8575 11.4785H19.8036L19.8306 11.4515C19.9385 11.2895 20.1274 11.2895 20.2894 11.2895H20.4513L21.7469 11.1276C22.8265 10.9927 23.9331 10.8307 24.9587 10.6958C24.3379 10.6418 23.7172 10.5878 23.1234 10.5338C22.7995 10.5068 22.5026 10.4798 22.1517 10.4528L21.342 10.3719C20.0465 10.2369 18.697 10.075 17.8333 10.6148C17.6173 10.7497 17.4284 10.9657 17.2665 11.1816C17.0505 11.4245 16.8616 11.6674 16.6187 11.7484C16.1868 11.8563 15.5391 11.8294 14.8913 11.7754C14.5944 11.7484 14.2975 11.7214 14.0276 11.7214C13.7307 11.7214 13.1099 11.6404 12.3002 11.5594C9.38526 11.1006 3.90621 10.5338 1.77397 11.4515C1.01824 11.7754 0.694354 12.2612 1.01824 13.0439C1.63902 14.5284 7.79283 14.0156 12.3272 13.6377ZM16.6727 13.4488C15.9169 13.3948 14.2705 13.5297 12.3272 13.6917C7.79283 14.0696 1.61203 14.5824 0.964258 13.0439C0.613382 12.2342 0.964258 11.7214 1.74698 11.3705C3.90621 10.4528 9.38527 11.0196 12.3272 11.3165C13.1369 11.3975 13.7577 11.4785 14.0546 11.4785C14.3245 11.4785 14.6214 11.5055 14.9183 11.5325C15.5661 11.5864 16.1868 11.6134 16.6187 11.5055C16.8346 11.4515 17.0236 11.2086 17.2395 10.9657C17.4284 10.7497 17.5903 10.5338 17.8333 10.3989C18.7239 9.85905 20.0735 10.021 21.396 10.1559L22.2057 10.2369C22.5026 10.2639 22.8535 10.2909 23.1774 10.3179C23.8791 10.3719 24.5809 10.4528 25.3096 10.4798L25.6065 10.5068L25.3366 10.5608C24.23 10.7227 23.0424 10.8847 21.8548 11.0466L20.5593 11.2086H20.3974C20.2624 11.2086 20.1005 11.2086 19.9925 11.3165C21.2071 11.5055 22.5566 11.5864 23.9061 11.6674C24.3649 11.6944 24.7968 11.7214 25.2556 11.7484L25.5255 11.7754L25.2556 11.8024C24.4999 11.9103 23.6902 11.9913 22.8805 12.0723C21.8548 12.1802 20.8022 12.2612 19.8575 12.4501C19.9385 12.5581 20.1274 12.5581 20.2894 12.5581H20.4243C20.7212 12.5851 21.0181 12.6121 21.315 12.6121C22.6106 12.72 23.9601 12.801 25.2556 12.882L25.5255 12.909L25.2556 12.963C24.4999 13.0709 23.7172 13.1519 22.9345 13.2329C21.9358 13.3408 20.9372 13.4218 20.0195 13.6107C20.0735 13.7727 20.2624 13.7457 20.4243 13.7457H20.5593C21.342 13.8266 22.1517 13.9346 22.9614 14.0426C23.7712 14.1235 24.6079 14.2315 25.3906 14.2855V14.3395C24.6079 14.3934 23.7172 14.5284 22.8265 14.6364C21.7469 14.7713 20.6403 14.9333 19.6416 14.9872C18.9399 15.0412 18.3731 14.8523 17.9142 14.5554C17.3744 14.2855 16.9966 13.8806 16.6727 13.4488Z" fill="#B3B3B3"/>
</g>
<defs>
<clipPath id="clip0_480_6160">
<rect width="82.6446" height="32" fill="white" transform="translate(0.882812)"/>
</clipPath>
</defs>
</svg>
