<svg width="67" height="32" viewBox="0 0 67 32" fill="none" xmlns="http://www.w3.org/2000/svg">
<path fill-rule="evenodd" clip-rule="evenodd" d="M1.49989 4.42964H5.70579C5.32905 4.17278 4.61979 3.8457 3.4523 3.8457C2.60724 3.8457 1.97441 4.08161 1.49989 4.42964ZM6.41195 4.42964H10.8111C10.2927 4.08161 9.56715 3.8457 8.5537 3.8457C7.4836 3.8457 6.79103 4.17278 6.41195 4.42964ZM0.90625 5.01358H11.4396C11.2628 4.78649 11.0506 4.58933 10.8111 4.42964H6.41195C6.16712 4.59532 6.05305 4.7315 6.05305 4.7315C6.05305 4.7315 5.94829 4.59532 5.70579 4.42964H1.49989C1.27553 4.5954 1.07568 4.79199 0.90625 5.01358Z" fill="#B3B3B3"/>
<path fill-rule="evenodd" clip-rule="evenodd" d="M0.554688 5.57939H11.7822C11.6903 5.37893 11.5756 5.18976 11.4404 5.01562H0.906602C0.766923 5.19721 0.650911 5.38849 0.554688 5.57939Z" fill="#B3B3B3"/>
<path fill-rule="evenodd" clip-rule="evenodd" d="M0.316546 6.16206H11.9887C11.9385 5.96153 11.8699 5.76606 11.7838 5.57812H0.556717C0.456614 5.77678 0.378238 5.97505 0.316546 6.16206ZM0.164062 6.74639H2.85057C3.02361 6.54541 3.30879 6.36382 3.77478 6.36382C4.24115 6.36382 4.50654 6.54579 4.65709 6.74639H7.63459C7.81035 6.54541 8.10057 6.36382 8.57549 6.36382C9.02401 6.36382 9.29134 6.54579 9.45042 6.74639H12.0873C12.0694 6.54949 12.0363 6.35426 11.9883 6.16245H0.316546C0.25378 6.35378 0.202856 6.5488 0.164062 6.74639Z" fill="#B3B3B3"/>
<path fill-rule="evenodd" clip-rule="evenodd" d="M0.0949141 7.30986H2.59557V7.2695C2.59557 7.2695 2.63825 6.99364 2.85164 6.74609H0.165142C0.103838 7.06076 0.0949141 7.2695 0.0949141 7.2695V7.30986ZM4.85643 7.30986H7.37726V7.2695C7.37726 7.2695 7.42033 6.99364 7.63644 6.74609H4.65894C4.77149 6.89921 4.83993 7.08023 4.85682 7.2695V7.30986H4.85643ZM9.67732 7.30986H12.098V7.2695C12.098 7.2695 12.1174 7.06037 12.0887 6.74609H9.45189C9.64666 6.99364 9.67732 7.2695 9.67732 7.2695V7.30986ZM0.09375 7.89379H2.59557V7.30986H0.0949141L0.09375 7.89379ZM4.85643 7.89379H7.37726V7.30986H4.85643V7.89379ZM9.67732 7.89379H12.098V7.30986H9.67732V7.89379Z" fill="#B3B3B3"/>
<path fill-rule="evenodd" clip-rule="evenodd" d="M0.0953019 8.47847H2.59867V7.89453H0.0968541L0.0953019 8.47847ZM4.85915 8.47847H7.37998V7.89453H4.85915V8.47847ZM9.68003 8.47847H12.1008V7.89453H9.68003V8.47847ZM0.09375 9.04223H2.59828V8.47847H0.0949141L0.09375 9.04223ZM4.85915 9.04223H7.37998V8.47847H4.85915V9.04223ZM9.68003 9.04223H12.1008V8.47847H9.68003V9.04223Z" fill="#B3B3B3"/>
<path fill-rule="evenodd" clip-rule="evenodd" d="M0.0871016 9.62691H2.5928V9.04297H0.0878775L0.0871016 9.62691ZM4.85328 9.62691H7.3741V9.04297H4.85328V9.62691ZM9.67416 9.62691H12.0949V9.04297H9.67416V9.62691ZM0.0859375 10.1907H2.5928V9.62691H0.0871016L0.0859375 10.1907ZM4.85328 10.1907H7.3741V9.62691H4.85328V10.1907ZM9.67416 10.1907H12.0949V9.62691H9.67416V10.1907Z" fill="#B3B3B3"/>
<path fill-rule="evenodd" clip-rule="evenodd" d="M0.0871016 10.7738H2.59512V10.1895H0.0882657L0.0871016 10.7738ZM4.85599 10.7738H7.37682V10.1895H4.85599V10.7738ZM9.67687 10.7738H12.0976V10.1895H9.67687V10.7738ZM0.0859375 11.3577H2.59551V10.7738H0.0874894L0.0859375 11.3577ZM4.85599 11.3577H7.37682V10.7738H4.85599V11.3577ZM9.67687 11.3577H12.0976V10.7738H9.67687V11.3577Z" fill="#B3B3B3"/>
<path fill-rule="evenodd" clip-rule="evenodd" d="M0.0859375 11.9212H2.59668V11.3574H0.0871016L0.0859375 11.9212ZM4.85716 11.9212H7.37798V11.3574H4.85716V11.9212ZM9.67804 11.9212H12.0988V11.3574H9.67804V11.9212Z" fill="#B3B3B3"/>
<path fill-rule="evenodd" clip-rule="evenodd" d="M0.0859375 12.5062H2.59784V11.9219H0.0871012L0.0859375 12.5062ZM4.85832 12.5062H7.37915V11.9219H4.85832V12.5062ZM9.6792 12.5062H12.0999V11.9219H9.6792V12.5062Z" fill="#B3B3B3"/>
<path fill-rule="evenodd" clip-rule="evenodd" d="M0.078125 13.0898H2.59158V12.5059H0.0796773L0.078125 13.0898ZM4.85206 13.0898H7.37289V12.5059H4.85206V13.0898ZM9.67294 13.0898H12.0937V12.5059H9.67294V13.0898Z" fill="#B3B3B3"/>
<path fill-rule="evenodd" clip-rule="evenodd" d="M0.0812288 13.6536H2.59546V13.0898H0.0820047L0.0812288 13.6536ZM4.85594 13.6536H7.37677V13.0898H4.85594V13.6536ZM9.67682 13.6536H12.0975V13.0898H9.67682V13.6536ZM0.0796769 14.2375H2.59507V13.6536H0.080841L0.0796769 14.2375ZM4.85594 14.2375H7.37677V13.6536H4.85594V14.2375ZM9.67682 14.2375H12.0975V13.6536H9.67682V14.2375ZM0.078125 14.8219H2.59507V14.2379H0.0796769L0.078125 14.8219ZM4.85594 14.8219H7.37677V14.2379H4.85594V14.8219ZM9.67682 14.8219H12.0975V14.2379H9.67682V14.8219Z" fill="#B3B3B3"/>
<path fill-rule="evenodd" clip-rule="evenodd" d="M0.0792891 15.386H2.5974V14.8223H0.0804532L0.0792891 15.386ZM4.85827 15.386H7.3791V14.8223H4.85827V15.386ZM9.67915 15.386H12.0999V14.8223H9.67915V15.386ZM0.078125 15.97H2.5974V15.386H0.0792891L0.078125 15.97ZM4.85827 15.97H7.3791V15.386H4.85827V15.97ZM9.67915 15.97H12.0999V15.386H9.67915V15.97Z" fill="#B3B3B3"/>
<path fill-rule="evenodd" clip-rule="evenodd" d="M0.078125 16.5527H2.59895V15.9688H0.0796773L0.078125 16.5527ZM4.85943 16.5527H7.38026V15.9688H4.85943V16.5527ZM9.68032 16.5527H12.101V15.9688H9.68032V16.5527Z" fill="#B3B3B3"/>
<path fill-rule="evenodd" clip-rule="evenodd" d="M0.0714766 17.1165H2.59347V16.5527H0.0726403L0.0714766 17.1165ZM4.85395 17.1165H7.37477V16.5527H4.85395V17.1165ZM9.67483 17.1165H12.0956V16.5527H9.67483V17.1165ZM0.0703125 17.7008H2.59347V17.1165H0.0714766L0.0703125 17.7008ZM4.85395 17.7008H7.37477V17.1165H4.85395V17.7008ZM9.67483 17.7008H12.0956V17.1165H9.67483V17.7008Z" fill="#B3B3B3"/>
<path fill-rule="evenodd" clip-rule="evenodd" d="M0.0726407 18.2649H2.59696V17.7012H0.0738044L0.0726407 18.2649ZM4.85783 18.2649H7.37865V17.7012H4.85783V18.2649ZM9.67871 18.2649H12.0994V17.7012H9.67871V18.2649ZM0.0714766 18.8493H2.59735V18.2649H0.0730285L0.0714766 18.8493ZM4.85783 18.8493H7.37865V18.2649H4.85783V18.8493ZM9.67871 18.8493H12.0994V18.2649H9.67871V18.8493ZM0.0703125 19.4328H2.59735V18.8493H0.0714766L0.0703125 19.4328ZM4.85783 19.4328H7.37865V18.8493H4.85783V19.4328ZM9.67871 19.4328H12.0994V18.8493H9.67871V19.4328Z" fill="#B3B3B3"/>
<path fill-rule="evenodd" clip-rule="evenodd" d="M0.0636641 19.9981H2.59225V19.4336H0.065216L0.0636641 19.9981ZM4.85273 19.9981H7.37356V19.4336H4.85273V19.9981ZM9.67361 19.9981H12.0943V19.4336H9.67361V19.9981ZM0.0625 20.5817H2.59186V19.9981H0.0632759L0.0625 20.5817ZM4.85273 20.5817H7.37356V19.9981H4.85273V20.5817ZM9.67361 20.5817H12.0943V19.9981H9.67361V20.5817Z" fill="#B3B3B3"/>
<path fill-rule="evenodd" clip-rule="evenodd" d="M0.0640519 21.1664H2.59458V20.582H0.065216L0.0640519 21.1664ZM4.85545 21.1664H7.37627V20.582H4.85545V21.1664ZM9.67633 21.1664H12.0971V20.582H9.67633V21.1664ZM0.0625 21.7305H2.59458V21.1667H0.0640519L0.0625 21.7305ZM4.85545 21.7305H7.37627V21.1667H4.85545V21.7305ZM9.67633 21.7305H12.0971V21.1667H9.67633V21.7305Z" fill="#B3B3B3"/>
<path fill-rule="evenodd" clip-rule="evenodd" d="M0.0625 22.3128H2.59574V21.7285H0.0636641L0.0625 22.3128ZM4.85622 22.3128H7.37705V21.7285H4.85622V22.3128ZM9.6771 22.3128H12.0978V21.7285H9.6771V22.3128Z" fill="#B3B3B3"/>
<path fill-rule="evenodd" clip-rule="evenodd" d="M0.0636641 22.896H2.59807V22.3125H0.0648278L0.0636641 22.896ZM4.85894 22.896H7.37977V22.3125H4.85894V22.896ZM9.67982 22.896H12.1005V22.3125H9.67982V22.896ZM0.0625 23.4598H2.59807V22.896H0.0636641L0.0625 23.4598ZM4.85894 23.4598H7.37977V22.896H4.85894V23.4598ZM9.67982 23.4598H12.1005V22.896H9.67982V23.4598Z" fill="#B3B3B3"/>
<path fill-rule="evenodd" clip-rule="evenodd" d="M0.0570153 24.0453H2.59375V23.4609H0.0581794L0.0570153 24.0453ZM4.85462 24.0453H7.37545V23.4609H4.85462V24.0453ZM9.6755 24.0453H12.0962V23.4609H9.6755V24.0453ZM0.0562394 24.6296H2.59414V24.0453H0.0574035L0.0562394 24.6296ZM4.85462 24.6296H7.37545V24.0453H4.85462V24.6296ZM9.6755 24.6296H12.0962V24.0453H9.6755V24.6296ZM0.0546875 25.1933H2.59414V24.6296H0.0562394L0.0546875 25.1933ZM4.85462 25.1933H7.37545V24.6296H4.85462V25.1933ZM9.6755 25.1933H12.0962V24.6296H9.6755V25.1933Z" fill="#B3B3B3"/>
<path fill-rule="evenodd" clip-rule="evenodd" d="M0.0546875 25.7769H2.5953V25.1934H0.0558516L0.0546875 25.7769ZM4.85578 25.7769H7.37661V25.1934H4.85578V25.7769ZM9.67667 25.7769H12.0974V25.1934H9.67667V25.7769Z" fill="#B3B3B3"/>
<path fill-rule="evenodd" clip-rule="evenodd" d="M30.7188 3.60542H31.0489L30.7188 3.02148V3.60542ZM30.7188 4.20954H31.3912L31.0489 3.60542H30.7188V4.20954Z" fill="#B3B3B3"/>
<path fill-rule="evenodd" clip-rule="evenodd" d="M30.7188 4.8131H31.733L31.3912 4.20898H30.7188V4.8131ZM35.6199 4.8131H37.9805V4.22916H35.6199V4.8131Z" fill="#B3B3B3"/>
<path fill-rule="evenodd" clip-rule="evenodd" d="M30.7188 5.417H32.0752L31.733 4.8125H30.7188V5.417ZM35.6199 5.417H37.9805V4.8125H35.6199V5.417Z" fill="#B3B3B3"/>
<path fill-rule="evenodd" clip-rule="evenodd" d="M30.7188 6.00191H32.4054L32.0752 5.41797H30.7188V6.00191ZM35.6199 6.00191H37.9805V5.41797H35.6199V6.00191Z" fill="#B3B3B3"/>
<path fill-rule="evenodd" clip-rule="evenodd" d="M30.7188 6.60607H32.7476L32.4054 6.00195H30.7188V6.60607ZM35.6199 6.60607H37.9805V6.00195H35.6199V6.60607ZM30.7188 7.21018H33.0894L32.7476 6.60607H30.7188V7.21018ZM35.6199 7.21018H37.9805V6.60607H35.6199V7.21018Z" fill="#B3B3B3"/>
<path fill-rule="evenodd" clip-rule="evenodd" d="M30.7191 7.81271H33.432L33.0898 7.20898H30.7191V7.81271ZM35.6203 7.81271H37.9809V7.20898H35.6203V7.81271ZM30.7191 8.39704H33.7622L33.4316 7.81271H30.7188V8.39704H30.7191ZM35.6203 8.39704H37.9809V7.81271H35.6203V8.39704Z" fill="#B3B3B3"/>
<path fill-rule="evenodd" clip-rule="evenodd" d="M30.7188 9.00255H34.1037L33.7618 8.39844H30.7188V9.00255ZM35.6199 9.00255H37.9805V8.39844H35.6199V9.00255ZM30.7188 9.60666H34.4463L34.1037 9.00255H30.7188V9.60666ZM35.6199 9.60666H37.9805V9.00255H35.6199V9.60666Z" fill="#B3B3B3"/>
<path fill-rule="evenodd" clip-rule="evenodd" d="M30.7188 10.21H34.7881L34.4463 9.60547H30.7188V10.21ZM35.6199 10.21H37.9805V9.60547H35.6199V10.21Z" fill="#B3B3B3"/>
<path fill-rule="evenodd" clip-rule="evenodd" d="M30.7188 10.7949H35.1183L34.7877 10.2109H30.7188V10.7949ZM35.6199 10.7949H37.9805V10.2109H35.6199V10.7949ZM30.7188 11.399H35.4601L35.1183 10.7949H30.7188V11.399ZM35.6199 11.399H37.9805V10.7949H35.6199V11.399Z" fill="#B3B3B3"/>
<path fill-rule="evenodd" clip-rule="evenodd" d="M30.7188 12.0026H37.9805V11.3984H35.6199V11.6809L35.4601 11.3984H30.7188V12.0026ZM30.7188 12.6067H33.039V12.0631L33.389 12.6067H37.9805V12.0026H30.7188V12.6067Z" fill="#B3B3B3"/>
<path fill-rule="evenodd" clip-rule="evenodd" d="M30.7188 13.1914H33.039V12.6074H30.7188V13.1914ZM33.7642 13.1914H37.9805V12.6074H33.389L33.7642 13.1914Z" fill="#B3B3B3"/>
<path fill-rule="evenodd" clip-rule="evenodd" d="M30.7188 13.7955H33.039V13.1914H30.7188V13.7955ZM34.1529 13.7955H37.9805V13.1914H33.7642L34.1529 13.7955Z" fill="#B3B3B3"/>
<path fill-rule="evenodd" clip-rule="evenodd" d="M30.7188 14.399H33.039V13.7949H30.7188V14.399ZM34.5417 14.399H37.9805V13.7949H34.1529L34.5417 14.399Z" fill="#B3B3B3"/>
<path fill-rule="evenodd" clip-rule="evenodd" d="M30.7188 14.9828H33.039V14.3984H30.7188V14.9828ZM34.9169 14.9828H37.9805V14.3984H34.5417L34.9169 14.9828Z" fill="#B3B3B3"/>
<path fill-rule="evenodd" clip-rule="evenodd" d="M30.7188 15.5865H33.039V14.9824H30.7188V15.5865ZM35.3053 15.5865H37.9805V14.9824H34.9169L35.3053 15.5865Z" fill="#B3B3B3"/>
<path fill-rule="evenodd" clip-rule="evenodd" d="M30.7188 16.192H33.039V15.5879H30.7188V16.192ZM35.6941 16.192H37.9805V15.5879H35.3053L35.6941 16.192ZM30.7188 16.7961H33.039V16.192H30.7188V16.7961ZM35.7201 16.7961H37.9805V16.192H35.6941L35.7197 16.2324V16.7961H35.7201ZM30.7188 17.3804H33.039V16.7961H30.7188V17.3804ZM35.7201 17.3804H37.9805V16.7961H35.7201V17.3804Z" fill="#B3B3B3"/>
<path fill-rule="evenodd" clip-rule="evenodd" d="M30.7188 17.983H33.039V17.3789H30.7188V17.983ZM35.7201 17.983H37.9805V17.3789H35.7201V17.983ZM30.7188 18.5871H33.039V17.983H30.7188V18.5871ZM35.7201 18.5871H37.9805V17.983H35.7201V18.5871Z" fill="#B3B3B3"/>
<path fill-rule="evenodd" clip-rule="evenodd" d="M30.7188 19.1928H33.039V18.5879H30.7188V19.1928ZM35.7201 19.1928H37.9805V18.5879H35.7201V19.1928Z" fill="#B3B3B3"/>
<path fill-rule="evenodd" clip-rule="evenodd" d="M30.7188 19.775H33.039V19.1914H30.7188V19.775ZM35.7201 19.775H37.9805V19.1914H35.7201V19.775ZM30.7188 20.3798H33.039V19.775H30.7188V20.3798ZM35.7201 20.3798H37.9805V19.775H35.7201V20.3798Z" fill="#B3B3B3"/>
<path fill-rule="evenodd" clip-rule="evenodd" d="M30.7188 20.985H33.039V20.3809H30.7188V20.985ZM35.7201 20.985H37.9805V20.3809H35.7201V20.985Z" fill="#B3B3B3"/>
<path fill-rule="evenodd" clip-rule="evenodd" d="M30.7188 21.5885H33.039V20.9844H30.7188V21.5885ZM35.7201 21.5885H37.9805V20.9844H35.7201V21.5885ZM30.7188 22.1728H33.039V21.5885H30.7188V22.1728ZM35.7201 22.1728H37.9805V21.5885H35.7201V22.1728Z" fill="#B3B3B3"/>
<path fill-rule="evenodd" clip-rule="evenodd" d="M30.7188 22.776H33.039V22.1719H30.7188V22.776ZM35.7201 22.776H37.9805V22.1719H35.7201V22.776Z" fill="#B3B3B3"/>
<path fill-rule="evenodd" clip-rule="evenodd" d="M30.7188 23.3795H33.039V22.7754H30.7188V23.3795ZM35.7201 23.3795H37.9805V22.7754H35.7201V23.3795Z" fill="#B3B3B3"/>
<path fill-rule="evenodd" clip-rule="evenodd" d="M30.7188 23.985H33.039V23.3809H30.7188V23.985ZM35.7201 23.985H37.9805V23.3809H35.7201V23.985Z" fill="#B3B3B3"/>
<path fill-rule="evenodd" clip-rule="evenodd" d="M30.7188 24.5687H33.039V23.9844H30.7188V24.5687ZM35.7201 24.5687H37.9805V23.9844H35.7201V24.5687ZM30.7188 25.1728H33.039V24.5687H30.7188V25.1728ZM35.7201 25.1728H37.9805V24.5687H35.7201V25.1728Z" fill="#B3B3B3"/>
<path fill-rule="evenodd" clip-rule="evenodd" d="M30.7188 25.776H33.039V25.1719H30.7188V25.776ZM35.7201 25.776H37.9805V25.1719H35.7201V25.776Z" fill="#B3B3B3"/>
<path fill-rule="evenodd" clip-rule="evenodd" d="M51.9531 0.846225H53.8058V0C53.8058 0 53.0601 0.255303 51.9531 0.846225Z" fill="#B3B3B3"/>
<path fill-rule="evenodd" clip-rule="evenodd" d="M50.5234 1.69115H53.8086V0.845703H51.9559C51.4665 1.10677 50.9885 1.38885 50.5234 1.69115Z" fill="#B3B3B3"/>
<path fill-rule="evenodd" clip-rule="evenodd" d="M49.3494 2.51707H53.8083V1.69141H50.5231C50.122 1.95226 49.7305 2.22767 49.3494 2.51707ZM48.3142 3.3629H53.8083V2.51707H49.3494C48.9946 2.78691 48.6494 3.06902 48.3142 3.3629ZM47.4141 4.20874H52.9174C53.4637 3.95227 53.8087 3.84635 53.8087 3.84635V3.3629H48.3146C48.0048 3.6344 47.7044 3.91651 47.4141 4.20874Z" fill="#B3B3B3"/>
<path fill-rule="evenodd" clip-rule="evenodd" d="M46.6262 5.05521H51.4149C51.8946 4.73749 52.3965 4.45468 52.9168 4.20898H47.4134C47.1419 4.48239 46.8793 4.76462 46.6262 5.05521ZM45.9375 5.90105H50.2796C50.6417 5.59798 51.0208 5.31571 51.4149 5.0556H46.6262C46.3875 5.32986 46.1578 5.61182 45.9375 5.90105Z" fill="#B3B3B3"/>
<path fill-rule="evenodd" clip-rule="evenodd" d="M45.3293 6.74623H49.3629C49.6527 6.4488 49.9575 6.16648 50.2763 5.90039H45.9342C45.7236 6.17579 45.5218 6.45788 45.3293 6.74623ZM44.8125 7.57189H48.6296C48.8614 7.28553 49.1062 7.01002 49.3633 6.74623H45.3297C45.1512 7.01201 44.9793 7.2871 44.8125 7.57189Z" fill="#B3B3B3"/>
<path fill-rule="evenodd" clip-rule="evenodd" d="M44.3516 8.4181H48.0034C48.1999 8.1272 48.409 7.84499 48.6301 7.57227H44.8129C44.651 7.84967 44.4971 8.13173 44.3516 8.4181ZM43.9531 9.26433H47.4839C47.6508 8.9679 47.8242 8.68621 48.0038 8.41849H44.352C44.2123 8.69242 44.0788 8.9741 43.9531 9.26433Z" fill="#B3B3B3"/>
<path fill-rule="evenodd" clip-rule="evenodd" d="M43.6172 10.1095H47.0583C47.1911 9.82225 47.3346 9.5401 47.4886 9.26367H43.9578C43.8366 9.54245 43.723 9.8245 43.6172 10.1095Z" fill="#B3B3B3"/>
<path fill-rule="evenodd" clip-rule="evenodd" d="M43.3254 10.9552H46.7014C46.8104 10.6627 46.928 10.3802 47.0529 10.1094H43.6117C43.5105 10.3849 43.415 10.6669 43.3254 10.9552ZM43.0938 11.7809H46.422C46.5085 11.4965 46.6016 11.2214 46.7018 10.9552H43.3258C43.2412 11.2283 43.1638 11.5037 43.0938 11.7809Z" fill="#B3B3B3"/>
<path fill-rule="evenodd" clip-rule="evenodd" d="M42.9056 12.6271H46.2036C46.2711 12.3365 46.3452 12.0544 46.4271 11.7812H43.0989C43.0273 12.0615 42.9629 12.3436 42.9056 12.6271ZM42.7578 13.4729H46.0337C46.083 13.1827 46.1396 12.901 46.2036 12.6271H42.9056C42.8502 12.9037 42.8009 13.1858 42.7578 13.4729Z" fill="#B3B3B3"/>
<path fill-rule="evenodd" clip-rule="evenodd" d="M42.6458 14.3185H45.9089C45.9415 14.029 45.9818 13.747 46.028 13.4727H42.7521C42.7101 13.7537 42.6747 14.0358 42.6458 14.3185ZM42.5756 15.1643H45.8363C45.8538 14.8757 45.8778 14.5936 45.9093 14.3185H42.6462C42.6165 14.5999 42.593 14.8819 42.5756 15.1643ZM42.5469 15.99H45.8061C45.8099 15.7091 45.8196 15.4336 45.8363 15.1647H42.5756C42.5604 15.4396 42.5509 15.7147 42.5469 15.99Z" fill="#B3B3B3"/>
<path fill-rule="evenodd" clip-rule="evenodd" d="M42.5535 16.8361H45.8196C45.8117 16.6348 45.8077 16.4334 45.8076 16.232C45.8076 16.1509 45.8092 16.0709 45.8107 15.9902H42.5515C42.55 16.1039 42.5469 16.2176 42.5469 16.3328C42.5469 16.5028 42.55 16.6704 42.5535 16.8361ZM50.5486 16.8361H53.8093V16.3328H50.5486V16.8361Z" fill="#B3B3B3"/>
<path fill-rule="evenodd" clip-rule="evenodd" d="M42.5978 17.6826H45.8798C45.8522 17.401 45.8325 17.1186 45.8209 16.8359H42.5547C42.5628 17.1231 42.5772 17.4051 42.5978 17.6826ZM50.5494 17.6826H53.8101V16.8359H50.5494V17.6826Z" fill="#B3B3B3"/>
<path fill-rule="evenodd" clip-rule="evenodd" d="M42.6725 18.5275H45.9856C45.9403 18.2467 45.9037 17.9647 45.8758 17.6816H42.5938C42.6139 17.968 42.6399 18.2508 42.6725 18.5275ZM50.5454 18.5275H53.8061V17.6816H50.5454V18.5275Z" fill="#B3B3B3"/>
<path fill-rule="evenodd" clip-rule="evenodd" d="M42.7968 19.3732H46.1487C46.0853 19.093 46.0307 18.8109 45.985 18.5273H42.6719C42.7068 18.8149 42.7491 19.0965 42.7968 19.3732ZM50.5448 19.3732H53.8055V18.5273H50.5448V19.3732Z" fill="#B3B3B3"/>
<path fill-rule="evenodd" clip-rule="evenodd" d="M42.966 20.2189H46.3715C46.288 19.9395 46.2137 19.6574 46.1488 19.373H42.7969C42.8469 19.6609 42.9032 19.943 42.966 20.2189ZM50.5448 20.2189H53.8056V19.373H50.5448V20.2189Z" fill="#B3B3B3"/>
<path fill-rule="evenodd" clip-rule="evenodd" d="M43.1787 21.044H46.6516C46.5497 20.7722 46.4572 20.497 46.3742 20.2188H42.9688C43.0324 20.5 43.1018 20.7751 43.1787 21.044ZM50.5475 21.044H53.8083V20.2188H50.5475V21.044ZM43.4444 21.8906H47.0039C46.8766 21.6127 46.7591 21.3303 46.6516 21.044H43.1787C43.2605 21.3327 43.349 21.6155 43.4444 21.8906ZM50.5475 21.8906H53.8083V21.044H50.5475V21.8906Z" fill="#B3B3B3"/>
<path fill-rule="evenodd" clip-rule="evenodd" d="M43.7677 22.7365H47.4332C47.2798 22.46 47.137 22.1778 47.0048 21.8906H43.4453C43.5466 22.1797 43.6541 22.4614 43.7677 22.7365ZM50.5488 22.7365H53.8095V21.8906H50.5488V22.7365Z" fill="#B3B3B3"/>
<path fill-rule="evenodd" clip-rule="evenodd" d="M44.1482 23.5822H47.9448C47.7626 23.307 47.5912 23.0248 47.4311 22.7363H43.7656C43.8859 23.0258 44.0139 23.3079 44.1482 23.5822ZM50.5463 23.5822H53.807V22.7363H50.5463V23.5822Z" fill="#B3B3B3"/>
<path fill-rule="evenodd" clip-rule="evenodd" d="M44.5962 24.4279H48.5588C48.3423 24.1548 48.1375 23.8726 47.945 23.582H44.1484C44.2908 23.873 44.441 24.1543 44.5962 24.4279ZM50.5465 24.4279H53.8073V23.582H50.5465V24.4279Z" fill="#B3B3B3"/>
<path fill-rule="evenodd" clip-rule="evenodd" d="M45.1001 25.253H49.2726C49.0215 24.9889 48.7825 24.7135 48.5564 24.4277H44.5938C44.7534 24.7083 44.9222 24.9836 45.1001 25.253ZM50.5441 25.253H53.8048V24.4277H50.5441V25.253Z" fill="#B3B3B3"/>
<path fill-rule="evenodd" clip-rule="evenodd" d="M45.6995 26.0986H50.1781C49.8602 25.8346 49.5583 25.5519 49.2741 25.252H45.1016C45.2915 25.5407 45.4909 25.823 45.6995 26.0986ZM50.5456 26.0986H53.8063V25.252H50.5456V26.0986Z" fill="#B3B3B3"/>
<path fill-rule="evenodd" clip-rule="evenodd" d="M46.3903 26.9454H53.81V26.0996H50.5492V26.3817C50.5492 26.3817 50.4115 26.2886 50.1818 26.0996H45.7031C45.9225 26.3892 46.1517 26.6713 46.3903 26.9454Z" fill="#B3B3B3"/>
<path fill-rule="evenodd" clip-rule="evenodd" d="M47.181 27.7911H53.8103V26.9453H46.3906C46.649 27.2425 46.9136 27.5234 47.181 27.7911Z" fill="#B3B3B3"/>
<path fill-rule="evenodd" clip-rule="evenodd" d="M48.0915 28.6369H53.809V27.791H47.1797C47.4735 28.0837 47.7776 28.3658 48.0915 28.6369Z" fill="#B3B3B3"/>
<path fill-rule="evenodd" clip-rule="evenodd" d="M49.1499 29.4826H53.8113V28.6367H48.0938C48.435 28.9319 48.7873 29.214 49.1499 29.4826ZM50.3577 30.3086H53.8109V29.4826H49.1495C49.5416 29.7732 49.9446 30.0487 50.3577 30.3086ZM51.8476 31.1544H53.8113V30.3086H50.3581C50.8935 30.6442 51.3979 30.9255 51.8476 31.1544Z" fill="#B3B3B3"/>
<path fill-rule="evenodd" clip-rule="evenodd" d="M53.8074 32.0001V31.1543H51.8438C53.0124 31.7495 53.8074 32.0001 53.8074 32.0001Z" fill="#B3B3B3"/>
<path fill-rule="evenodd" clip-rule="evenodd" d="M59.3516 17.1575H61.7319V16.9961H59.3516V17.1575ZM64.5131 17.1575H66.9936V16.9961H64.5131V17.1575ZM59.3516 17.7411H61.7319V17.1575H59.3516V17.7411ZM64.5131 17.7411H66.9936V17.1575H64.5131V17.7411Z" fill="#B3B3B3"/>
<path fill-rule="evenodd" clip-rule="evenodd" d="M59.3516 18.3265H61.7319V17.7422H59.3516V18.3265ZM64.5131 18.3265H66.9936V17.7422H64.5131V18.3265Z" fill="#B3B3B3"/>
<path fill-rule="evenodd" clip-rule="evenodd" d="M59.3516 18.9097H61.7319V18.3262H59.3516V18.9097ZM64.5131 18.9097H66.9936V18.3262H64.5131V18.9097ZM59.3516 19.494H61.7319V18.9097H59.3516V19.494ZM64.5131 19.494H66.9936V18.9097H64.5131V19.494Z" fill="#B3B3B3"/>
<path fill-rule="evenodd" clip-rule="evenodd" d="M59.3516 20.0785H61.7319V19.4941H59.3516V20.0785ZM64.5131 20.0785H66.9936V19.4941H64.5131V20.0785ZM59.3516 20.6628H61.7319V20.0785H59.3516V20.6628ZM64.5131 20.6628H66.9936V20.0785H64.5131V20.6628Z" fill="#B3B3B3"/>
<path fill-rule="evenodd" clip-rule="evenodd" d="M59.3516 21.2457H61.7319V20.6621H59.3516V21.2457ZM64.5131 21.2457H66.9936V20.6621H64.5131V21.2457ZM59.3516 21.8498H61.7319V21.2457H59.3516V21.8498ZM64.5131 21.8498H66.9936V21.2457H64.5131V21.8498ZM59.3516 22.4341H61.7319V21.8498H59.3516V22.4341ZM64.5131 22.4341H66.9936V21.8498H64.5131V22.4341Z" fill="#B3B3B3"/>
<path fill-rule="evenodd" clip-rule="evenodd" d="M59.4102 23.0179H61.9927C61.7812 22.7238 61.732 22.4336 61.732 22.4336H59.3516C59.3516 22.4336 59.3481 22.6691 59.4102 23.0179ZM64.4072 23.0179H66.9521C66.9808 22.8239 66.9909 22.6648 66.9936 22.5624V22.4336H64.5131C64.5131 22.4336 64.5419 22.7238 64.4072 23.0179ZM59.5603 23.6015H62.984C62.4816 23.5293 62.1762 23.2724 61.9927 23.0179H59.4102C59.4412 23.1898 59.4882 23.3892 59.5603 23.6015ZM63.5606 23.6015H66.819C66.885 23.3892 66.9257 23.1898 66.9517 23.0179H64.4068C64.2904 23.2724 64.0503 23.5293 63.5606 23.6015Z" fill="#B3B3B3"/>
<path fill-rule="evenodd" clip-rule="evenodd" d="M59.8084 24.1859H66.5778C66.6795 23.988 66.7559 23.7897 66.8134 23.6016H63.555C63.3638 23.6294 63.1696 23.6294 62.9784 23.6016H59.5547C59.6183 23.7894 59.7006 23.988 59.8084 24.1859Z" fill="#B3B3B3"/>
<path fill-rule="evenodd" clip-rule="evenodd" d="M60.2187 24.7699H66.1947C66.3453 24.5902 66.4752 24.3942 66.5819 24.1855H59.8125C59.926 24.3947 60.0622 24.5907 60.2187 24.7699ZM60.9036 25.3534H65.5293C65.7791 25.1934 66.0034 24.9967 66.1947 24.7699H60.2187C60.4173 24.9968 60.648 25.1934 60.9036 25.3534Z" fill="#B3B3B3"/>
<path fill-rule="evenodd" clip-rule="evenodd" d="M65.532 25.3535H60.9062C61.4611 25.7019 62.2126 25.9378 63.2335 25.9378C64.2492 25.9378 64.9911 25.7023 65.532 25.3535Z" fill="#B3B3B3"/>
<path fill-rule="evenodd" clip-rule="evenodd" d="M60.8912 4.26948H65.4676C64.9136 3.92029 64.1589 3.68555 63.1307 3.68555C62.153 3.68516 61.4286 3.92029 60.8912 4.26948ZM60.2266 4.85342H66.149C65.952 4.6261 65.7224 4.4293 65.4676 4.26948H60.8912C60.6424 4.43066 60.4184 4.6274 60.2266 4.85342Z" fill="#B3B3B3"/>
<path fill-rule="evenodd" clip-rule="evenodd" d="M59.8289 5.43745H66.5475C66.4365 5.22875 66.3029 5.03292 66.149 4.85352H60.2266C60.0736 5.03345 59.9403 5.2292 59.8289 5.43745ZM59.5755 6.02139H66.7942C66.7293 5.81983 66.6465 5.62442 66.5471 5.43745H59.8285C59.7284 5.62487 59.6438 5.82017 59.5755 6.02139ZM59.4219 6.60572H61.947C62.1328 6.33373 62.475 6.08192 63.1102 6.08192C63.7558 6.08192 64.1039 6.33334 64.2909 6.60572H66.9378C66.9048 6.40775 66.857 6.21255 66.7946 6.02178H59.5759C59.5111 6.21261 59.4596 6.40773 59.4219 6.60572Z" fill="#B3B3B3"/>
<path fill-rule="evenodd" clip-rule="evenodd" d="M59.3532 7.18979H61.7375C61.7604 6.98106 61.8329 6.78083 61.9489 6.60586H59.4239C59.373 6.87164 59.3579 7.08154 59.3532 7.18979ZM64.5074 7.18979H66.9937V7.14362C66.988 6.96322 66.97 6.78342 66.9398 6.60547H64.2928C64.448 6.83012 64.4934 7.06874 64.5074 7.18979ZM59.3517 7.79391H61.7321V7.27011C61.7321 7.27011 61.7321 7.23985 61.7375 7.18979H59.3532C59.3509 7.2414 59.3517 7.27011 59.3517 7.27011V7.79391ZM64.5132 7.79391H66.9937V7.18979H64.5074C64.5136 7.23985 64.5136 7.27011 64.5136 7.27011V7.79391H64.5132Z" fill="#B3B3B3"/>
<path fill-rule="evenodd" clip-rule="evenodd" d="M59.3516 8.3773H61.7319V7.79297H59.3516V8.3773ZM64.5131 8.3773H66.9936V7.79297H64.5131V8.3773ZM59.3516 8.96123H61.7319V8.3773H59.3516V8.96123ZM64.5131 8.96123H66.9936V8.3773H64.5131V8.96123Z" fill="#B3B3B3"/>
<path fill-rule="evenodd" clip-rule="evenodd" d="M59.3516 9.54487H61.7319V8.96094H59.3516V9.54487ZM64.5131 9.54487H66.9936V8.96094H64.5131V9.54487ZM59.3516 10.1292H61.7319V9.54527H59.3516V10.1292ZM64.5131 10.1292H66.9936V9.54527H64.5131V10.1292Z" fill="#B3B3B3"/>
<path fill-rule="evenodd" clip-rule="evenodd" d="M59.3516 10.7148H61.7319V10.1309H59.3516V10.7148ZM64.5131 10.7148H66.9936V10.1309H64.5131V10.7148ZM59.3516 11.2987H61.7319V10.7148H59.3516V11.2987ZM64.5131 11.2987H66.9936V10.7148H64.5131V11.2987ZM59.3516 11.8827H61.7319V11.2987H59.3516V11.8827ZM64.5131 11.8827H66.9936V11.2987H64.5131V11.8827Z" fill="#B3B3B3"/>
<path fill-rule="evenodd" clip-rule="evenodd" d="M59.3516 12.4648H61.7319V11.8809H59.3516V12.4648ZM64.5131 12.4648H66.9936V11.8809H64.5131V12.4648Z" fill="#B3B3B3"/>
<path fill-rule="evenodd" clip-rule="evenodd" d="M59.3516 13.0492H61.7319V12.4648H59.3516V13.0492ZM64.5131 13.0492H66.9936V12.4648H64.5131V13.0492Z" fill="#B3B3B3"/>
<path fill-rule="evenodd" clip-rule="evenodd" d="M59.3516 13.6328H61.7319V13.0488H59.3516V13.6328ZM64.5131 13.6328H66.9936V13.0488H64.5131V13.6328ZM59.3516 14.2171H61.7319V13.6332H59.3516V14.2171ZM64.5131 14.2171H66.9936V13.6332H64.5131V14.2171ZM59.3516 14.8212H61.7319V14.2171H59.3516V14.8212ZM64.5131 14.8212H66.9936V14.2171H64.5131V14.8212Z" fill="#B3B3B3"/>
<path fill-rule="evenodd" clip-rule="evenodd" d="M59.3516 15.4062H61.7319V14.8223H59.3516V15.4062ZM64.5131 15.4062H66.9936V14.8223H64.5131V15.4062ZM59.3516 15.9901H61.7319V15.4062H59.3516V15.9901ZM64.5131 15.9901H66.9936V15.4062H64.5131V15.9901Z" fill="#B3B3B3"/>
<path fill-rule="evenodd" clip-rule="evenodd" d="M59.3516 16.5746H61.7319V15.9902H59.3516V16.5746ZM64.5131 16.5746H66.9936V15.9902H64.5131V16.5746ZM66.9936 16.9975V16.5746H64.5131V16.9975H66.9936ZM61.7319 16.5746H59.3516V16.9975H61.7319V16.5746Z" fill="#B3B3B3"/>
<path fill-rule="evenodd" clip-rule="evenodd" d="M19.44 4.42964H24.0522C23.5113 4.08161 22.7675 3.8457 21.7436 3.8457C20.7243 3.8457 19.9817 4.08161 19.44 4.42964ZM18.7734 5.01358H24.7149C24.5249 4.78625 24.3013 4.58932 24.0518 4.42964H19.44C19.1897 4.58962 18.965 4.78648 18.7734 5.01358Z" fill="#B3B3B3"/>
<path fill-rule="evenodd" clip-rule="evenodd" d="M18.3906 5.57939H25.0805C24.9777 5.37837 24.853 5.18931 24.7088 5.01562H18.767C18.6214 5.18927 18.4952 5.37831 18.3906 5.57939Z" fill="#B3B3B3"/>
<path fill-rule="evenodd" clip-rule="evenodd" d="M18.1499 6.16206H25.3147C25.2542 5.96074 25.1756 5.76529 25.0799 5.57812H18.39C18.2929 5.76531 18.2126 5.96072 18.1499 6.16206ZM18.0156 6.74639H20.6482C20.8294 6.50156 21.1631 6.26294 21.7765 6.26294C22.4093 6.26294 22.7442 6.50156 22.9203 6.74639H25.4431C25.4156 6.54871 25.3728 6.35348 25.315 6.16245H18.1499C18.0827 6.37702 18.0412 6.57683 18.0156 6.74639Z" fill="#B3B3B3"/>
<path fill-rule="evenodd" clip-rule="evenodd" d="M17.977 7.30986H20.4377V7.2695C20.4377 7.2695 20.459 7.00411 20.6499 6.74609H18.0173C17.9696 7.06076 17.977 7.2695 17.977 7.2695V7.30986ZM23.1183 7.30986H25.4789V7.14379C25.4749 7.01068 25.4634 6.87791 25.4444 6.74609H22.9216C23.1079 7.00411 23.1183 7.2695 23.1183 7.2695V7.30986ZM17.977 7.89379H20.4377V7.30986H17.977V7.89379ZM23.1183 7.89379H25.4789V7.30986H23.1183V7.89379Z" fill="#B3B3B3"/>
<path fill-rule="evenodd" clip-rule="evenodd" d="M17.9766 8.47847H20.4373V7.89453H17.9766V8.47847ZM23.1179 8.47847H25.4785V7.89453H23.1179V8.47847ZM17.9766 9.04223H20.4373V8.47847H17.9766V9.04223ZM23.1179 9.04223H25.4785V8.47847H23.1179V9.04223Z" fill="#B3B3B3"/>
<path fill-rule="evenodd" clip-rule="evenodd" d="M17.9766 9.62691H20.4373V9.04297H17.9766V9.62691ZM23.1179 9.62691H25.4785V9.04297H23.1179V9.62691ZM17.9766 10.1907H20.4373V9.62691H17.9766V10.1907ZM23.1179 10.1907H25.4785V9.62691H23.1179V10.1907Z" fill="#B3B3B3"/>
<path fill-rule="evenodd" clip-rule="evenodd" d="M17.9766 10.7738H20.4373V10.1895H17.9766V10.7738ZM23.1179 10.7738H25.4785V10.1895H23.1179V10.7738ZM17.9766 11.3577H20.4373V10.7738H17.9766V11.3577ZM23.1179 11.3577H25.4785V10.7738H23.1179V11.3577Z" fill="#B3B3B3"/>
<path fill-rule="evenodd" clip-rule="evenodd" d="M17.9766 11.9212H20.4373V11.3574H17.9766V11.9212ZM23.1179 11.9212H25.4785V11.3574H23.1179V11.9212Z" fill="#B3B3B3"/>
<path fill-rule="evenodd" clip-rule="evenodd" d="M17.9766 12.5062H20.4373V11.9219H17.9766V12.5062ZM23.1179 12.5062H25.4785V11.9219H23.1179V12.5062Z" fill="#B3B3B3"/>
<path fill-rule="evenodd" clip-rule="evenodd" d="M17.9766 13.0898H20.4373V12.5059H17.9766V13.0898ZM23.1179 13.0898H25.4785V12.5059H23.1179V13.0898Z" fill="#B3B3B3"/>
<path fill-rule="evenodd" clip-rule="evenodd" d="M17.9766 13.6536H20.4373V13.0898H17.9766V13.6536ZM23.1179 13.6536H25.4785V13.0898H23.1179V13.6536ZM17.9766 14.2375H20.4373V13.6536H17.9766V14.2375ZM23.1179 14.2375H25.4785V13.6536H23.1179V14.2375ZM17.9766 14.8219H20.4373V14.2379H17.9766V14.8219ZM23.1179 14.8219H25.4785V14.2379H23.1179V14.8219Z" fill="#B3B3B3"/>
<path fill-rule="evenodd" clip-rule="evenodd" d="M17.9766 15.386H20.4373V14.8223H17.9766V15.386ZM23.1179 15.386H25.4785V14.8223H23.1179V15.386ZM17.9766 15.97H20.4373V15.386H17.9766V15.97ZM23.1179 15.97H25.4785V15.386H23.1179V15.97Z" fill="#B3B3B3"/>
<path fill-rule="evenodd" clip-rule="evenodd" d="M17.9766 16.5527H20.4373V15.9688H17.9766V16.5527ZM23.1179 16.5527H25.4785V15.9688H23.1179V16.5527Z" fill="#B3B3B3"/>
<path fill-rule="evenodd" clip-rule="evenodd" d="M17.9766 17.1165H20.4373V16.5527H17.9766V17.1165ZM23.1179 17.1165H25.4785V16.5527H23.1179V17.1165ZM17.9766 17.7008H20.4373V17.1165H17.9766V17.7008ZM23.1179 17.7008H25.4785V17.1165H23.1179V17.7008Z" fill="#B3B3B3"/>
<path fill-rule="evenodd" clip-rule="evenodd" d="M17.9826 18.2649H20.4433V17.7012H17.9826V18.2649ZM23.124 18.2649H25.4845V17.7012H23.124V18.2649ZM17.9826 18.8493H20.4433V18.2649H17.9826V18.8493ZM23.124 18.8493H25.4845V18.2649H23.124V18.8493ZM14.8887 19.4328H25.4845V18.8493H23.124V18.9901H20.4433V18.8493H17.9826V18.9901H14.6016L14.8887 19.4328Z" fill="#B3B3B3"/>
<path fill-rule="evenodd" clip-rule="evenodd" d="M15.2487 19.9981H25.4787V19.4336H14.8828L15.2487 19.9981ZM15.627 20.5817H25.4787V19.9981H15.2487L15.627 20.5817Z" fill="#B3B3B3"/>
<path fill-rule="evenodd" clip-rule="evenodd" d="M16.0115 21.166H25.4845V20.582H15.6328L16.0115 21.166ZM18.0826 21.7301H20.4033V21.4077H23.184V21.7301H25.4845V21.166H16.0115L16.1423 21.3677H18.0826V21.7301Z" fill="#B3B3B3"/>
<path fill-rule="evenodd" clip-rule="evenodd" d="M18.0781 22.3128H20.3987V21.7285H18.0781V22.3128ZM23.1795 22.3128H25.48V21.7285H23.1795V22.3128Z" fill="#B3B3B3"/>
<path fill-rule="evenodd" clip-rule="evenodd" d="M18.0781 22.896H20.3987V22.3125H18.0781V22.896ZM23.1795 22.896H25.48V22.3125H23.1795V22.896ZM18.0781 23.4598H20.3987V22.896H18.0781V23.4598ZM23.1795 23.4598H25.48V22.896H23.1795V23.4598Z" fill="#B3B3B3"/>
<path fill-rule="evenodd" clip-rule="evenodd" d="M18.0781 24.0453H20.3987V23.4609H18.0781V24.0453ZM23.1795 24.0453H25.48V23.4609H23.1795V24.0453ZM18.0781 24.6296H20.3987V24.0453H18.0781V24.6296ZM23.1795 24.6296H25.48V24.0453H23.1795V24.6296ZM18.0781 25.1933H20.3987V24.6296H18.0781V25.1933ZM23.1795 25.1933H25.48V24.6296H23.1795V25.1933Z" fill="#B3B3B3"/>
<path fill-rule="evenodd" clip-rule="evenodd" d="M18.0781 25.7769H20.3987V25.1934H18.0781V25.7769ZM23.1795 25.7769H25.48V25.1934H23.1795V25.7769Z" fill="#B3B3B3"/>
</svg>
