<svg width="61" height="32" viewBox="0 0 61 32" fill="none" xmlns="http://www.w3.org/2000/svg">
<path fill-rule="evenodd" clip-rule="evenodd" d="M26.1012 27.7551C23.5171 29.8774 20.1026 31.1692 16.5034 31.1692C8.01319 31.1692 1.2072 24.3399 1.2072 15.9653C1.2072 7.56744 8.01319 0.738103 16.5034 0.738103C22.1329 0.738103 27.0243 3.78355 29.7004 8.39789C30.0694 8.49024 30.3465 8.58259 30.7152 8.67494C28.0394 3.50685 22.6867 0 16.5034 0C7.64379 0 0.46875 7.10604 0.46875 15.9653C0.46875 24.802 7.64414 32 16.5034 32C20.6564 32 24.4399 30.3391 27.301 27.7551H26.1012Z" fill="#B3B3B3"/>
<path fill-rule="evenodd" clip-rule="evenodd" d="M18.5312 27.0178H60.4057V20.7422H18.5312V27.0178Z" fill="#B3B3B3"/>
<path fill-rule="evenodd" clip-rule="evenodd" d="M20.6566 9.5046L20.4719 10.3354H18.4416C17.8879 16.2419 17.5188 21.0173 17.1498 23.2326C16.3193 27.2009 12.6278 29.4155 10.2284 29.4155C9.39796 29.4155 8.38281 29.0468 8.38281 28.0317C8.38281 27.4779 8.84421 27.0165 9.39796 27.0165C10.2284 27.0165 10.8745 27.6623 11.3359 28.4004C12.6281 27.6623 12.8125 27.0165 13.3662 24.4321C13.6433 23.2326 14.3814 14.6727 14.7504 10.3354H13.0892L13.2739 9.5046H14.9351L15.1198 8.02839C16.0426 2.5836 20.0108 1.9375 21.4877 1.9375C22.2258 1.9375 23.7024 2.30655 23.7024 3.3217C23.7024 3.96745 23.1486 4.2445 22.5949 4.2445C21.5797 4.2445 21.1183 3.69075 20.6566 2.85996C18.9954 3.5984 18.7187 7.659 18.534 9.50425H20.6566V9.5046ZM20.4722 17.072C20.4722 12.7351 23.241 8.95119 27.9473 8.95119C30.9008 8.95119 32.5613 10.2434 32.5613 13.1041C32.5613 17.4414 29.7929 21.11 25.0862 21.11C22.1335 21.11 20.4722 19.8178 20.4722 17.072ZM28.7781 13.7502C28.7781 12.6427 28.6858 9.96668 27.0249 9.96668C24.6255 9.96668 24.2561 14.673 24.2561 16.4266C24.2561 17.4418 24.3485 20.1875 26.0094 20.1875C28.4087 20.1872 28.7781 15.5035 28.7781 13.7502ZM33.5768 17.072C33.5768 12.7351 36.4379 8.95119 41.1443 8.95119C44.0054 8.95119 45.7353 10.2434 45.7353 13.1041C45.7353 17.4414 42.8975 21.11 38.1912 21.11C35.3301 21.11 33.5768 19.8178 33.5768 17.072ZM41.9747 13.7502C41.9747 12.6427 41.8827 9.96668 40.2215 9.96668C37.7298 9.96668 37.4531 14.673 37.4531 16.4266C37.4531 17.4418 37.4531 20.1875 39.114 20.1875C41.6053 20.1872 41.9747 15.5035 41.9747 13.7502ZM60.04 19.7258C58.3784 20.4639 56.3481 21.1096 54.9643 21.1096C54.2262 21.1096 54.3179 20.0018 54.3179 19.5407C54.3179 18.9877 54.3179 18.2485 54.5029 16.7957L54.4102 16.703C53.4874 18.6179 51.6418 21.1096 49.2425 21.1096C47.3965 21.1096 46.5657 19.1717 46.5657 17.5338C46.5657 13.4728 49.7955 9.13589 54.4102 9.13589H55.333C55.7024 6.2748 55.7024 5.07529 55.7024 4.15215C55.7024 3.87545 55.7024 3.5984 55.4254 3.5984C55.1483 3.5984 54.7796 3.69075 53.8564 3.96745L53.6721 3.22935C55.518 2.5836 57.5483 2.2142 59.3936 2.12185C59.5786 2.12185 59.6706 2.12185 59.6706 2.49091C59.6706 4.89025 57.8247 17.4411 57.8247 18.7106C57.8247 18.9877 57.8247 19.4487 58.1941 19.4487C58.3784 19.4487 59.0249 19.2637 59.763 18.9873L60.04 19.7258ZM54.0408 15.7805C54.6872 14.2116 54.8716 12.6427 55.241 10.2434C55.056 10.1507 54.8716 10.1507 54.7796 10.1507C51.9185 10.1507 50.534 14.396 50.534 16.703C50.534 17.2567 50.6267 18.6179 51.4571 18.6179C52.6569 18.6183 53.6721 16.7033 54.0408 15.7805Z" fill="#B3B3B3"/>
<path fill-rule="evenodd" clip-rule="evenodd" d="M21.0234 22.2173H22.0386L23.3304 24.1553V22.2173H24.1612V25.9085H23.4228L21.8539 23.7866V25.9085H21.0234V22.2173ZM26.5602 22.2173H29.4213V22.9558H27.6677V23.6012H28.7756V24.432H27.6677V25.0778H29.4213V25.9085H26.5602V22.2173ZM32.4671 22.9558H31.452V22.2173H34.5894V22.9558H33.5743V25.9085H32.4671V22.9558ZM36.4354 22.2173H37.5422L38.0043 24.1553H38.0959L38.5573 22.2173H39.4808L39.9419 24.1553H40.0346L40.496 22.2173H41.3261L40.4033 25.9085H39.4808L38.9267 23.8783L38.373 25.9085H37.4505L36.4354 22.2173ZM45.087 26.0012C44.0028 26.0012 43.2644 25.2631 43.2644 24.0629C43.2644 22.8634 44.0025 22.125 45.087 22.125C46.1948 22.125 46.8402 22.8631 46.8402 24.0629C46.8402 25.2628 46.1944 26.0012 45.087 26.0012ZM44.4412 24.0626C44.4412 25.0778 44.7182 25.2628 45.087 25.2628C45.4563 25.2628 45.7327 25.0778 45.7327 24.0626C45.7327 23.0481 45.4563 22.8631 45.087 22.8631C44.6256 22.8631 44.4412 23.1401 44.4412 24.0626ZM49.0549 22.2173H50.9008C52.1003 22.2173 52.3773 22.7704 52.3773 23.2325C52.3773 23.6939 52.1003 24.0626 51.6392 24.1553L52.3773 25.9085H51.1778L50.6241 24.3396H50.1627V25.9085H49.0549V22.2173ZM50.1627 23.6939H50.7164C50.9928 23.6939 51.2702 23.5089 51.2702 23.3245C51.2702 23.0481 51.0852 22.8631 50.7164 22.8631H50.1627V23.6939ZM54.6847 22.2173H55.7922V23.6939L56.8993 22.2173H57.9145L56.9917 23.4169L58.0988 25.9085H56.9917L56.2536 24.3396L55.7922 24.9861V25.9085H54.6847V22.2173Z" fill="white"/>
</svg>
